<?xml version="1.0" standalone="no"?>
<!DOCTYPE svg PUBLIC "-//W3C//DTD SVG 1.1//EN" "http://www.w3.org/Graphics/SVG/1.1/DTD/svg11.dtd" >
<svg xmlns="http://www.w3.org/2000/svg" xmlns:xlink="http://www.w3.org/1999/xlink" version="1.1">
<metadata></metadata>
<defs>
<font id="work_sansextrabold" horiz-adv-x="1236" >
<font-face units-per-em="2048" ascent="1638" descent="-410" />
<missing-glyph horiz-adv-x="546" />
<glyph unicode="&#xfb01;" horiz-adv-x="1480" d="M16 739v285h838v-285h-838zM168 0v1090q0 109 36 183.5t98.5 120.5t140 66.5t159.5 20.5q92 0 163 -19.5t101 -42.5l-32 -245q-20 12 -49 20t-74 8q-68 0 -112 -28.5t-44 -106.5v-127l27 -57v-883h-414zM942 1296q0 98 54 141.5t177 43.5t177.5 -43t54.5 -142 q0 -96 -54.5 -139t-177.5 -43t-177 43t-54 139zM966 0v1024h414v-1024h-414z" />
<glyph unicode="&#xfb02;" horiz-adv-x="1552" d="M16 739v285h838v-285h-838zM168 0v1090q0 109 36 183.5t98.5 120.5t140 66.5t159.5 20.5q92 0 163 -19.5t101 -42.5l-32 -245q-20 12 -49 20t-74 8q-68 0 -112 -28.5t-44 -106.5v-127l27 -57v-883h-414zM964 322v1124h414v-1065q0 -66 20.5 -94.5t71.5 -28.5q25 0 44.5 3 t41.5 11l-22 -233q-37 -27 -103.5 -43t-132.5 -16q-178 0 -256 78.5t-78 263.5z" />
<glyph horiz-adv-x="0" />
<glyph horiz-adv-x="682" />
<glyph horiz-adv-x="0" />
<glyph horiz-adv-x="0" />
<glyph unicode="&#xd;" horiz-adv-x="546" />
<glyph unicode=" "  horiz-adv-x="546" />
<glyph unicode="&#x09;" horiz-adv-x="546" />
<glyph unicode="&#xa0;" horiz-adv-x="546" />
<glyph unicode="!" horiz-adv-x="638" d="M98 170q0 86 58.5 135t162.5 49q102 0 161 -49t59 -135q0 -88 -58.5 -137t-161.5 -49q-104 0 -162.5 49t-58.5 137zM102 969v383h433v-383l-46 -523h-342z" />
<glyph unicode="&#x22;" horiz-adv-x="948" d="M115 791v589h331l-63 -589h-268zM541 791v589h331l-63 -589h-268z" />
<glyph unicode="#" horiz-adv-x="1445" d="M57 307v238h1243v-238h-1243zM145 807v237h1244v-237h-1244zM209 0l215 1352h272l-215 -1352h-272zM719 0l215 1352h272l-217 -1352h-270z" />
<glyph unicode="$" horiz-adv-x="1325" d="M29 217l174 268q53 -66 139 -108.5t181 -64t177 -21.5q92 0 143.5 24.5t51.5 75.5q0 37 -36 57.5t-116 38.5l-264 64q-106 25 -196 70t-142.5 116.5t-52.5 175.5q0 129 69.5 228.5t203 155t321.5 55.5q184 0 330.5 -51.5t255.5 -151.5l-168 -246q-90 76 -196.5 120 t-241.5 44q-72 0 -118 -12.5t-67.5 -35t-21.5 -52.5q0 -25 14 -44.5t57 -36t127 -34.5l203 -45q199 -45 296 -126t97 -232q0 -150 -75.5 -250.5t-204.5 -149.5t-293 -49q-127 0 -249 26.5t-224.5 75t-173.5 115.5zM559 -172v1696h244v-1696h-244z" />
<glyph unicode="%" horiz-adv-x="1980" d="M55 983q0 117 50.5 205t140.5 136t211 48q119 0 209 -48t140 -136t50 -205q0 -119 -50 -206t-140.5 -135t-208.5 -48q-121 0 -211 48t-140.5 136t-50.5 205zM354 0l969 1354h307l-971 -1354h-305zM354 983q0 -37 12.5 -64.5t35 -41t53.5 -13.5q35 0 56 13.5t33.5 41 t12.5 64.5t-12.5 64.5t-33.5 41t-56 13.5q-31 0 -53.5 -13.5t-35 -41t-12.5 -64.5zM1122 369q0 119 50.5 206t140.5 135t211 48t211 -48t140 -136.5t50 -204.5q0 -117 -50 -205t-140 -136t-211 -48t-211 48t-140.5 136t-50.5 205zM1421 369q0 -37 12.5 -65t35 -41t55.5 -13 t55.5 13t34.5 41t12 65q0 39 -12 65.5t-34.5 39.5t-55.5 13t-55.5 -13t-35 -39.5t-12.5 -65.5z" />
<glyph unicode="&#x26;" horiz-adv-x="1341" d="M35 356q0 51 16.5 112.5t61.5 118t125.5 97.5t207.5 53l56 11q90 57 137 99t64.5 81t17.5 84q0 47 -27.5 73.5t-75.5 26.5q-49 0 -78.5 -30.5t-29.5 -86.5q0 -29 12.5 -58.5t45 -71.5t94 -108.5t161.5 -170.5q96 -98 164 -166t120 -104.5t102.5 -47t115.5 -0.5l-27 -288 q-92 0 -162.5 12t-140 49t-154.5 109.5t-208 193.5q-152 150 -246 248t-142 167.5t-65.5 127t-17.5 125.5q0 88 47 171t146.5 136t254.5 53q158 0 252 -49t137 -126t43 -159q0 -98 -49 -181t-148.5 -140.5t-250.5 -85.5l-62 -37q-59 -39 -90.5 -69.5t-44 -63.5t-12.5 -76 t24.5 -76t69.5 -50t107 -17q88 0 157.5 26.5t137.5 67.5l30 47q33 59 54.5 130t19.5 169l268 -2q-4 -131 -48 -240.5t-128 -185.5l-71 -51q-63 -102 -185.5 -162.5t-294.5 -60.5q-143 0 -254.5 40.5t-173 124.5t-63.5 211z" />
<glyph unicode="'" horiz-adv-x="522" d="M115 791v589h331l-63 -589h-268z" />
<glyph unicode="(" horiz-adv-x="829" d="M141 553q0 326 127 561.5t367 382.5l188 -184q-109 -96 -179.5 -206t-103 -245t-32.5 -309q0 -176 32.5 -311.5t103.5 -244t179 -206.5l-188 -184q-240 147 -367 381.5t-127 564.5z" />
<glyph unicode=")" horiz-adv-x="829" d="M6 -209q111 98 180.5 206.5t102.5 244t33 309.5t-33 310t-102.5 246t-180.5 206l189 184q242 -147 367.5 -382.5t125.5 -563.5t-125.5 -563.5t-367.5 -380.5z" />
<glyph unicode="*" horiz-adv-x="1216" d="M68 997l90 277l274 -100l201 -119l-25 -82l-26 -78l-234 23zM184 639l181 229l176 156l67 -51l66 -49l-92 -213l-164 -242zM463 1495h289l-11 -291l-49 -231h-84h-84l-51 231zM541 924l67 49l66 51l178 -156l178 -229l-233 -170l-164 242zM582 1055l200 119l277 100 l88 -277l-281 -79l-233 -23l-25 78z" />
<glyph unicode="+" d="M98 530v283h1041v-283h-1041zM459 117v1108h321v-1108h-321z" />
<glyph unicode="," horiz-adv-x="612" d="M68 172q0 76 32.5 123t86 70.5t110.5 23.5q86 0 140.5 -38t80 -99.5t25.5 -130.5q0 -102 -45 -194.5t-116 -160t-146 -98.5l-160 113q55 25 106 59.5t91 75.5t61 84l-10 8q-12 -8 -30 -13t-46 -5q-41 0 -82 20.5t-69.5 60.5t-28.5 101z" />
<glyph unicode="-" horiz-adv-x="1093" d="M160 391v324h776v-324h-776z" />
<glyph unicode="." horiz-adv-x="612" d="M76 186q0 96 61.5 149.5t167.5 53.5q111 0 170.5 -53t59.5 -150q0 -96 -59.5 -149t-170.5 -53q-106 0 -167.5 53t-61.5 149z" />
<glyph unicode="/" horiz-adv-x="978" d="M20 -143l555 1589h383l-555 -1589h-383z" />
<glyph unicode="0" horiz-adv-x="1333" d="M84 676q0 346 145.5 521t438.5 175t437 -175t144 -521t-144 -521t-437 -175t-438.5 175t-145.5 521zM496 676q0 -141 16 -224t54.5 -118t101.5 -35t100 35t53.5 118t16.5 224t-16.5 224t-53.5 118t-100 35t-101.5 -35t-54.5 -118t-16 -224z" />
<glyph unicode="1" horiz-adv-x="913" d="M41 1130q57 4 119.5 27t120 54.5t103.5 67.5t69 73h329v-1352h-403v700v124t2 126q-68 -59 -146.5 -102t-164.5 -57z" />
<glyph unicode="2" horiz-adv-x="1230" d="M68 891q2 162 73.5 268.5t197.5 159.5t282 53q145 0 246.5 -40t164 -104.5t91 -141t28.5 -152.5q0 -133 -69.5 -243.5t-192.5 -206t-285 -181.5v-4q39 4 88 6t104.5 3t106.5 1h260v-309h-1050v258q164 94 281.5 182t193.5 169t112.5 154t36.5 138q0 63 -34.5 107.5 t-108.5 44.5q-84 0 -126 -63.5t-42 -194.5z" />
<glyph unicode="3" horiz-adv-x="1222" d="M45 319l381 158q2 -72 24.5 -112.5t62.5 -56t85 -15.5t79 15.5t52.5 46t18.5 71.5q0 47 -19.5 73.5t-52.5 38t-76 11.5q-29 0 -50.5 -2t-49.5 -6v254q16 -2 32.5 -3t40.5 -1q76 0 111 32.5t35 106.5q0 61 -34 95t-93 34q-63 0 -107.5 -38t-50.5 -138l-362 116 q16 123 93 205t194.5 125t261.5 43q162 0 273.5 -45t169.5 -129t58 -205q0 -92 -29.5 -151.5t-74.5 -94t-86 -50t-64 -15.5v-8q25 0 71 -10.5t94 -39t82 -85t34 -148.5q0 -127 -69.5 -220t-188.5 -142t-266 -49q-229 0 -376 85t-204 254z" />
<glyph unicode="4" horiz-adv-x="1349" d="M88 276v256q25 45 65 109t95 147l377 564h487v-799h193v-277h-193v-276h-364v276h-660zM408 553h346v377q0 35 1 74.5t3 82.5h-4q-20 -39 -43 -78.5t-45 -72.5l-201 -299q-12 -20 -26.5 -40.5t-30.5 -43.5z" />
<glyph unicode="5" horiz-adv-x="1193" d="M37 266l362 178q20 -72 64.5 -115.5t130.5 -43.5q53 0 91 18.5t58.5 55t20.5 90.5q0 49 -19.5 81.5t-57.5 51t-97 18.5q-43 0 -77 -8t-60.5 -21.5t-49.5 -33.5l-309 57l88 758h883v-314h-586l-28 -217l-9 -37h2q39 45 111 67.5t158 22.5q135 0 228 -52t143.5 -142 t50.5 -207q0 -131 -45.5 -225t-123 -152.5t-175.5 -87t-207 -28.5q-174 0 -310.5 64.5t-236.5 221.5z" />
<glyph unicode="6" horiz-adv-x="1267" d="M84 659q0 246 84 403t226.5 233.5t318.5 76.5q111 0 207 -28.5t169.5 -95t108.5 -181.5l-336 -158q-18 66 -61 103t-113 37q-49 0 -90 -21.5t-69.5 -62.5t-45 -104.5t-16.5 -145.5v-13.5v-17.5l2 -18q25 53 75 91t114.5 58.5t127.5 20.5q123 0 219.5 -47.5t152.5 -136.5 t56 -216q0 -139 -65.5 -242.5t-182 -158.5t-274.5 -55q-176 0 -313 72.5t-216 222t-79 384.5zM526 426q0 -43 22.5 -77t58.5 -51t77 -17q76 0 116 37.5t40 107.5q0 47 -18.5 79t-52.5 49t-85 17q-43 0 -78 -17t-57.5 -50t-22.5 -78z" />
<glyph unicode="7" horiz-adv-x="1280" d="M61 1032v320h1156v-285q-168 -160 -261.5 -330t-131.5 -353t-38 -384h-409q0 223 56 418.5t178 374t319 348.5l92 -109h-961z" />
<glyph unicode="8" horiz-adv-x="1292" d="M76 369q0 123 67.5 198.5t192.5 114.5v2q-109 41 -164 119t-55 188q0 117 65.5 201t185 129t277.5 45q162 0 280.5 -45t184.5 -129t66 -201q0 -111 -54.5 -188.5t-165.5 -118.5v-2q125 -39 193 -114.5t68 -198.5q0 -119 -69 -205t-196 -135t-307 -49q-178 0 -305 49 t-195.5 135t-68.5 205zM477 412q0 -43 19.5 -76t58.5 -48.5t92 -15.5t90 15.5t56.5 48.5t19.5 76t-19.5 74.5t-57.5 48t-89 16.5t-90 -16.5t-59.5 -48t-20.5 -74.5zM496 940q0 -61 41 -97t110 -36q70 0 110 36t40 97q0 63 -40 99t-110 36t-110.5 -35.5t-40.5 -99.5z" />
<glyph unicode="9" horiz-adv-x="1261" d="M61 901q0 147 68 251.5t188.5 162t278.5 57.5q193 0 322 -75.5t194.5 -228.5t65.5 -386q0 -252 -77 -406.5t-209 -225t-296 -70.5q-178 0 -311 68.5t-201 221.5l371 140q12 -59 48 -91t99 -32q49 0 87 19.5t64.5 57t40 95t13.5 133.5v18v21h-8q-20 -49 -67.5 -83 t-109 -51.5t-128.5 -17.5q-125 0 -222.5 52.5t-154 147.5t-56.5 222zM440 911q0 -68 44 -104.5t112 -36.5q45 0 80 17.5t56.5 50t21.5 77.5t-21.5 78t-56.5 50.5t-80 17.5q-70 0 -113 -39t-43 -111z" />
<glyph unicode=":" horiz-adv-x="622" d="M82 186q0 96 61.5 149.5t167.5 53.5q111 0 170.5 -53t59.5 -150q0 -96 -59.5 -149t-170.5 -53q-106 0 -167.5 53t-61.5 149zM82 841q0 96 61.5 149.5t167.5 53.5q111 0 170.5 -53t59.5 -150q0 -96 -59.5 -149t-170.5 -53q-106 0 -167.5 53t-61.5 149z" />
<glyph unicode=";" horiz-adv-x="622" d="M74 172q0 76 32.5 123t86 70.5t110.5 23.5q86 0 140.5 -38t80 -99.5t25.5 -130.5q0 -102 -45 -194.5t-116 -160t-146 -98.5l-160 113q55 25 106 59.5t91 75.5t61 84l-10 8q-12 -8 -30 -13t-46 -5q-41 0 -82 20.5t-69.5 60.5t-28.5 101zM82 839q0 96 61.5 149.5 t167.5 53.5q111 0 170.5 -53t59.5 -150q0 -96 -59.5 -149t-170.5 -53q-106 0 -167.5 53t-61.5 149z" />
<glyph unicode="&#x3c;" d="M123 434v342l1014 441v-388l-695 -223l695 -225v-387z" />
<glyph unicode="=" d="M133 295v270h971v-270h-971zM133 750v270h971v-270h-971z" />
<glyph unicode="&#x3e;" d="M100 -6v387l695 223l-695 225v388l1014 -441v-342z" />
<glyph unicode="?" horiz-adv-x="1292" d="M61 991q27 106 94.5 193.5t189.5 137.5t310 50q160 0 285 -42t197.5 -129t72.5 -218q0 -129 -53 -209t-141 -119t-197 -51l-28 -162h-355l2 314q123 8 193.5 30.5t100.5 58.5t30 81q0 39 -14.5 65.5t-43 39.5t-75.5 13q-72 0 -112 -45t-52 -135zM403 170q0 86 58 135 t160 49q104 0 162.5 -49t58.5 -135q0 -88 -58.5 -137t-162.5 -49q-102 0 -160 49t-58 137z" />
<glyph unicode="@" horiz-adv-x="1886" d="M68 473q0 197 67.5 360.5t192.5 283.5t292.5 184.5t366.5 64.5q178 0 327.5 -54.5t259 -156.5t171 -247.5t61.5 -325.5q0 -170 -44 -285t-114.5 -182.5t-151.5 -97t-157 -29.5q-152 0 -232.5 75.5t-74.5 196.5q-45 -111 -130 -174t-189 -63q-82 0 -148.5 45t-105.5 131 t-39 207q0 102 28.5 198t85 176t137.5 127t183 47q53 0 104.5 -19.5t90 -62.5t51.5 -118l43 182h354l-127 -553q-6 -29 -10 -51.5t-4 -44.5q0 -53 24.5 -79t71.5 -26q49 0 91 39t68.5 124t26.5 220q0 152 -48 270.5t-135 200.5t-207 125t-259 43q-164 0 -297 -51 t-231.5 -147.5t-150.5 -231.5t-52 -301q0 -174 55.5 -303t152.5 -213t224 -126t271 -42q135 0 225 34t164 77l73 -138q-57 -37 -125.5 -67.5t-154.5 -49t-201 -18.5q-188 0 -348 54.5t-277.5 161t-183 265t-65.5 365.5zM772 418q0 -43 12.5 -74t37 -47t61.5 -16q51 0 88 47 t56.5 114.5t19.5 126.5q0 41 -11.5 69t-34 42t-55.5 14q-45 0 -76.5 -28.5t-54 -71.5t-33 -90t-10.5 -86z" />
<glyph unicode="A" horiz-adv-x="1400" d="M-6 0l455 1352h501l457 -1352h-430l-76 281h-412l-77 -281h-418zM559 551h275l-138 504z" />
<glyph unicode="B" horiz-adv-x="1421" d="M125 0v1352h719q254 -2 375.5 -93.5t121.5 -269.5q0 -117 -70.5 -200.5t-219.5 -106.5v-2q166 -20 245.5 -106.5t79.5 -213.5q0 -176 -121.5 -268t-367.5 -92h-762zM526 283h265q80 0 118.5 31.5t38.5 91.5q0 59 -39 89.5t-118 30.5h-265v-243zM526 815h234 q153 0 153 119q0 123 -153 123h-234v-242z" />
<glyph unicode="C" horiz-adv-x="1390" d="M74 676q0 219 82 374.5t234.5 238.5t359.5 83q147 0 271 -41t210 -127t117 -223l-363 -145q-23 131 -79 174t-144 43q-82 0 -140.5 -42t-88 -125t-29.5 -210q0 -125 27.5 -209t86 -126t152.5 -42q84 0 141.5 49t75.5 154l373 -101q-37 -150 -124 -244t-211 -135.5 t-273 -41.5q-209 0 -361.5 82.5t-234.5 238.5t-82 375z" />
<glyph unicode="D" horiz-adv-x="1468" d="M125 0v1352h620q317 0 483.5 -176.5t166.5 -499.5q0 -322 -166 -499t-484 -177h-620zM543 305h151q152 0 211.5 91t59.5 280q0 188 -59.5 279.5t-211.5 91.5h-151v-742z" />
<glyph unicode="E" horiz-adv-x="1286" d="M125 0v1352h1089v-314h-671v-219h536v-291h-536v-215h698v-313h-1116z" />
<glyph unicode="F" horiz-adv-x="1255" d="M125 0v1352h1087v-314h-669v-235h536v-314h-536v-489h-418z" />
<glyph unicode="G" horiz-adv-x="1478" d="M74 672q0 221 83 377.5t238.5 239.5t368.5 83q240 0 386 -86t226 -272l-389 -146q-20 100 -77.5 142.5t-143.5 42.5q-88 0 -146.5 -42t-87 -126t-28.5 -209q0 -135 31.5 -221t97 -126t162.5 -40q49 0 90 11t72.5 33.5t48 56.5t16.5 79v10h-266v269h618v-748h-280l-33 342 l65 -66q-37 -143 -147.5 -219.5t-288.5 -76.5t-317.5 77.5t-219 233t-79.5 381.5z" />
<glyph unicode="H" horiz-adv-x="1525" d="M125 0v1352h418v-1352h-418zM328 524v314h882v-314h-882zM981 0v1352h420v-1352h-420z" />
<glyph unicode="I" horiz-adv-x="667" d="M125 0v1352h418v-1352h-418z" />
<glyph unicode="J" horiz-adv-x="1304" d="M63 567l412 70q-10 -75 -10 -131q0 -87 23 -132q38 -75 135 -75q88 0 126.5 66.5t38.5 209.5v777h418v-813q0 -264 -155.5 -411.5t-446.5 -147.5q-213 0 -343 75.5t-177 208.5q-30 86 -30 187q0 55 9 116z" />
<glyph unicode="K" horiz-adv-x="1445" d="M125 0v1352h418v-1352h-418zM340 528l616 824h453l-649 -813l-21 79l-309 -399zM600 692l309 232l533 -924h-473z" />
<glyph unicode="L" d="M125 0v1352h418v-1039h643v-313h-1061z" />
<glyph unicode="M" horiz-adv-x="1904" d="M125 0v1352h590l182 -641l68 -269h4l67 269l183 641h563v-1352h-369v541l8 436h-4l-297 -977h-336l-292 977h-7l9 -436v-541h-369z" />
<glyph unicode="N" horiz-adv-x="1523" d="M125 0v1352h457l368 -670l88 -182h2l-8 266v586h367v-1352h-459l-369 670l-86 182h-4l8 -266v-586h-364z" />
<glyph unicode="O" horiz-adv-x="1501" d="M74 676q0 219 82 374.5t234.5 238.5t361.5 83q211 0 361.5 -83t231 -238.5t80.5 -374.5t-80.5 -375t-231 -238.5t-361.5 -82.5q-209 0 -361.5 82.5t-234.5 238.5t-82 375zM504 676q0 -127 27.5 -210t82 -125t138.5 -42q82 0 137 42t81.5 125t26.5 210q0 129 -26.5 211 t-81.5 124t-137 42q-84 0 -138.5 -42t-82 -124t-27.5 -211z" />
<glyph unicode="P" horiz-adv-x="1409" d="M125 0v1352h672q174 0 295.5 -54.5t186 -158t64.5 -252.5q0 -150 -64.5 -253.5t-186 -157.5t-295.5 -54h-254v-422h-418zM543 725h186q92 0 143.5 40t51.5 122t-51.5 122t-143.5 40h-186v-324z" />
<glyph unicode="Q" horiz-adv-x="1501" d="M74 676q0 219 82 374.5t234.5 238.5t361.5 83q211 0 361.5 -83t231 -238.5t80.5 -374.5t-80.5 -375t-231 -238.5t-361.5 -82.5q-209 0 -361.5 82.5t-234.5 238.5t-82 375zM504 676q0 -127 27.5 -210t82 -125t138.5 -42q82 0 137 42t81.5 125t26.5 210q0 129 -26.5 211 t-81.5 124t-137 42q-84 0 -138.5 -42t-82 -124t-27.5 -211zM627 -47q0 49 15 102.5t46 106.5l227 63q-29 -53 -42 -97t-13 -79q0 -70 32 -108.5t86 -55t124 -16.5q92 0 150.5 18.5t99.5 49.5l51 -277q-55 -39 -137 -60.5t-168 -21.5q-145 0 -252 47t-163 131t-56 197z" />
<glyph unicode="R" horiz-adv-x="1429" d="M125 0v1352h692q252 0 390.5 -116t138.5 -308q0 -215 -135.5 -325.5t-389.5 -110.5l-41 -23h-245v-469h-410zM535 754h215q88 0 132 33.5t44 111.5t-44 113t-132 35h-215v-293zM637 592l360 74l426 -666h-456z" />
<glyph unicode="S" horiz-adv-x="1325" d="M12 203l181 276q55 -53 135 -95t170 -66.5t174 -24.5q59 0 97 11t54.5 31.5t16.5 49.5q0 35 -27 56.5t-100 37.5l-226 51q-111 25 -205 68t-150 120t-56 202q0 133 71.5 235t208.5 159.5t330 57.5t342.5 -52t261.5 -159l-182 -268q-92 78 -195.5 122t-228.5 44 q-63 0 -102 -12.5t-56.5 -34t-17.5 -47.5q0 -33 40 -53.5t111 -37.5l205 -47q205 -47 305.5 -138t100.5 -249q0 -154 -77 -256t-210 -153t-301 -51q-133 0 -259 26.5t-230.5 76.5t-180.5 120z" />
<glyph unicode="T" horiz-adv-x="1374" d="M45 1038v314h1282v-314h-430v-1038h-418v1038h-434z" />
<glyph unicode="U" horiz-adv-x="1456" d="M98 567v785h420v-807q0 -123 53.5 -184.5t157.5 -61.5t157.5 61.5t53.5 184.5v807h418v-785q0 -295 -158 -441t-471 -146q-315 0 -473 146t-158 441z" />
<glyph unicode="V" horiz-adv-x="1425" d="M-2 1352h436l217 -777l70 -264l65 260l220 781h421l-466 -1352h-496z" />
<glyph unicode="W" horiz-adv-x="2068" d="M0 1352h451l190 -1020l213 1020h369l223 -1014l186 1014h434l-387 -1352h-450l-131 578l-56 337h-6l-55 -337l-131 -578h-463z" />
<glyph unicode="X" horiz-adv-x="1402" d="M12 0l455 676l-432 676h493l193 -373l194 373h455l-430 -664l465 -688h-504l-213 389l-201 -389h-475z" />
<glyph unicode="Y" horiz-adv-x="1406" d="M18 1352h424l164 -338l101 -236l98 236l166 338h415l-473 -873v-479h-419v479z" />
<glyph unicode="Z" horiz-adv-x="1302" d="M63 0v293l852 893l72 -139h-913v305h1159v-293l-850 -893l-74 139h946v-305h-1192z" />
<glyph unicode="[" horiz-adv-x="833" d="M174 -344v1790h610v-277h-258v-1235h258v-278h-610z" />
<glyph unicode="\" horiz-adv-x="978" d="M20 1446h383l555 -1589h-383z" />
<glyph unicode="]" horiz-adv-x="833" d="M47 -66h258v1235h-258v277h612v-1790h-612v278z" />
<glyph unicode="^" horiz-adv-x="1292" d="M49 727l424 752h344l426 -752h-358l-238 490l-241 -490h-357z" />
<glyph unicode="_" horiz-adv-x="1103" d="M0 -113h1104v-319h-1104v319z" />
<glyph unicode="`" horiz-adv-x="1024" d="M260 1503h375l129 -358h-295z" />
<glyph unicode="a" horiz-adv-x="1196" d="M49 256q0 113 68.5 184.5t208.5 98.5l370 77l-2 -174l-151 -34q-51 -10 -75 -34t-24 -65q0 -39 27 -60.5t66 -21.5q27 0 49 8.5t39.5 24.5t28 41t10.5 59v285q0 57 -30 91t-87 34q-53 0 -91 -28.5t-48 -108.5l-351 63q20 160 149.5 254t368.5 94q164 0 276 -46t167 -134 t55 -211v-344q0 -82 76 -82q31 0 47 9l-20 -224q-66 -32 -162 -32h-6q-88 0 -156 27.5t-106.5 80.5t-38.5 139v17l41 6q0 -82 -50.5 -143.5t-131.5 -94t-179 -32.5q-106 0 -182 32.5t-116 94t-40 149.5z" />
<glyph unicode="b" horiz-adv-x="1284" d="M100 0v1446h414v-776l-37 55q25 137 110 228t242 91q117 0 205 -63t136.5 -183t48.5 -290q0 -166 -48.5 -285t-139.5 -181t-218 -62q-104 0 -182 50t-125 137t-57 198l36 49l-22 -414h-363zM514 512q0 -80 17.5 -132t49 -79t74.5 -27q70 0 109 53.5t39 184.5t-39 183.5 t-109 52.5q-45 0 -76.5 -28t-48 -81t-16.5 -127z" />
<glyph unicode="c" horiz-adv-x="1165" d="M55 512q0 170 70 289t194.5 181t290.5 62q172 0 284 -48t169 -124.5t65 -160.5l-383 -117q-6 84 -33.5 125t-86.5 41q-51 0 -86 -24.5t-51.5 -80t-16.5 -147.5q0 -94 19.5 -147.5t55.5 -75t81 -21.5q41 0 66.5 17.5t42 51.5t20.5 81l370 -117q-8 -88 -70.5 -159.5 t-171 -114.5t-255.5 -43q-176 0 -305 62t-199 181t-70 289z" />
<glyph unicode="d" horiz-adv-x="1284" d="M66 508q0 170 49 290t142 183t218 63q145 0 227 -91t105 -232l-37 -51v776h414v-1446h-373l-25 383l48 -47q-12 -104 -60.5 -185t-125.5 -126t-179 -45q-125 0 -216 62t-139 181t-48 285zM481 512q0 -131 39 -184.5t109 -53.5q45 0 75.5 27t48 80t17.5 133 q0 76 -15.5 128t-47 79t-78.5 27q-68 0 -108 -52.5t-40 -183.5z" />
<glyph unicode="e" horiz-adv-x="1187" d="M55 512q0 170 70 289t194.5 181t288.5 62q168 0 286 -62t180.5 -173t62.5 -258q0 -35 -3.5 -70t-7.5 -59h-804v180h624l-196 -76q0 117 -32 177.5t-110 60.5q-53 0 -89 -24.5t-53 -82t-17 -151.5t21.5 -148.5t60 -75t98.5 -20.5q66 0 102.5 26.5t52.5 73.5l332 -98 q-25 -94 -99.5 -157.5t-176.5 -95t-215 -31.5q-176 0 -304 62t-197 181t-69 289z" />
<glyph unicode="f" horiz-adv-x="866" d="M16 739v285h838v-285h-838zM168 0v1090q0 109 36 183.5t98.5 120.5t140 66.5t159.5 20.5q92 0 163 -19.5t101 -42.5l-32 -245q-20 12 -49 20t-74 8q-68 0 -112 -28.5t-44 -106.5v-127l27 -57v-883h-414z" />
<glyph unicode="g" horiz-adv-x="1165" d="M35 -188q0 86 75.5 136t247.5 52l-6 -35q-145 16 -211.5 78.5t-66.5 165.5q0 104 84 165.5t215 65.5l135 -61h-37q-74 -2 -102.5 -18.5t-28.5 -43.5q0 -29 23.5 -43t74.5 -14h334q190 0 289.5 -77t99.5 -228q0 -135 -70.5 -223t-201.5 -130t-316 -42q-291 0 -414.5 65.5 t-123.5 186.5zM78 694q0 117 59.5 194t176 116.5t284.5 39.5q170 0 285.5 -39.5t176 -116.5t60.5 -194q0 -113 -60.5 -190.5t-176 -116.5t-285.5 -39q-256 0 -388 88t-132 258zM336 -111q0 -35 64.5 -53t177.5 -18q92 0 152.5 9t90 27.5t29.5 43.5q0 20 -14.5 31.5 t-55.5 11.5h-383q-29 0 -45 -14.5t-16 -37.5zM481 696q0 -61 32 -93t85 -32t85 32t32 93q0 63 -32 94t-85 31t-85 -30.5t-32 -94.5zM805 967q0 86 28.5 170t93 139t171.5 55h18.5t20.5 -2l28 -264q-18 4 -32.5 5t-28.5 1q-88 0 -129 -44t-41 -103z" />
<glyph unicode="h" horiz-adv-x="1269" d="M100 0v1446h414v-621q43 106 126 162.5t196 56.5q104 0 179 -39.5t115.5 -118.5t40.5 -194v-692h-413v582q0 88 -28 120.5t-77 32.5q-41 0 -72.5 -20.5t-49 -64.5t-17.5 -111v-539h-414z" />
<glyph unicode="i" horiz-adv-x="614" d="M76 1296q0 98 54 141.5t177 43.5t177.5 -43t54.5 -142q0 -96 -54.5 -139t-177.5 -43t-177 43t-54 139zM100 0v1024h414v-1024h-414z" />
<glyph unicode="j" horiz-adv-x="614" d="M-203 -377l53 252q20 -14 50 -22.5t67 -8.5q61 0 97 34t36 118v1028h414v-1065q0 -141 -47 -229t-141.5 -129t-237.5 -41q-90 0 -161.5 16t-129.5 47zM76 1296q0 98 54 141.5t177 43.5t177.5 -43t54.5 -142q0 -96 -54.5 -139t-177.5 -43t-177 43t-54 139z" />
<glyph unicode="k" horiz-adv-x="1312" d="M100 0v1446h414v-1446h-414zM440 545l416 479h451l-510 -553l-74 -12l-277 -324zM606 489l258 244l465 -733h-455z" />
<glyph unicode="l" horiz-adv-x="684" d="M98 322v1124h414v-1065q0 -66 20.5 -94.5t71.5 -28.5q25 0 44.5 3t41.5 11l-22 -233q-37 -27 -103.5 -43t-132.5 -16q-178 0 -256 78.5t-78 263.5z" />
<glyph unicode="m" horiz-adv-x="1918" d="M100 0v1024h373l10 -211q45 113 135.5 172t215.5 59q115 0 195.5 -52t115.5 -152q33 68 83 112.5t116.5 68t142.5 23.5q102 0 177 -39.5t116 -118.5t41 -194v-692h-414v590q0 82 -26.5 113.5t-75.5 31.5q-41 0 -73 -20.5t-48.5 -64.5t-16.5 -109v-541h-413v590 q0 82 -27 113.5t-76 31.5q-39 0 -70.5 -20.5t-49 -64.5t-17.5 -111v-539h-414z" />
<glyph unicode="n" horiz-adv-x="1269" d="M100 0v1024h373l19 -395l-43 45q16 119 67 201.5t132 125.5t188 43q104 0 179 -39.5t115.5 -118.5t40.5 -194v-692h-413v586q0 86 -28 117.5t-79 31.5q-39 0 -70.5 -19.5t-49 -62.5t-17.5 -112v-541h-414z" />
<glyph unicode="o" horiz-adv-x="1224" d="M55 512q0 170 71 289t196.5 181t289.5 62q168 0 293 -62t194.5 -181t69.5 -289q0 -168 -69.5 -288t-194.5 -182t-293 -62q-164 0 -289.5 62t-196.5 182t-71 288zM471 512q0 -92 16.5 -146.5t48 -78t76.5 -23.5q47 0 78 23.5t47.5 78t16.5 146.5t-16.5 147.5t-47.5 78 t-78 22.5q-45 0 -76.5 -22.5t-48 -78t-16.5 -147.5z" />
<glyph unicode="p" horiz-adv-x="1284" d="M100 -430v1454h375l21 -414l-47 49q10 113 57 199t126 136t183 50q127 0 217 -62t138.5 -180t48.5 -286t-49.5 -289t-140.5 -184t-216 -63q-145 0 -228 91t-108 228l37 55v-784h-414zM514 512q0 -76 15.5 -129t48 -80t77.5 -27q70 0 109 52.5t39 183.5t-39 184.5 t-107 53.5q-43 0 -75.5 -27t-50 -79t-17.5 -132z" />
<glyph unicode="q" horiz-adv-x="1284" d="M66 516q0 170 49 287t141 179t217 62q106 0 184 -50t124 -137t55 -202l-48 -43l21 412h375v-1454h-414v795l39 -56q-12 -96 -56 -169.5t-114 -116.5t-168 -43q-125 0 -216 63t-140 184t-49 289zM481 512q0 -131 39 -183.5t109 -52.5q45 0 76.5 27t48 81t16.5 130 q0 80 -17.5 132t-48 78t-75.5 26q-68 0 -108 -53.5t-40 -184.5z" />
<glyph unicode="r" horiz-adv-x="894" d="M100 0v1024h371l12 -240q35 121 110 190.5t195 69.5q43 0 70 -7t39 -17l-37 -336q-20 8 -53 14.5t-76 6.5q-61 0 -110.5 -23t-78 -67t-28.5 -111v-504h-414z" />
<glyph unicode="s" horiz-adv-x="1097" d="M35 158l166 219q55 -55 142 -96t183 -41q49 0 83 12t34 43q0 20 -17.5 33.5t-72.5 23.5l-107 21q-209 41 -296 119.5t-87 207.5q0 84 52.5 163t166 130t293.5 51q158 0 282 -41.5t198 -119.5l-162 -213q-55 53 -139 83.5t-160 30.5q-39 0 -65.5 -6t-40 -17t-13.5 -30 q0 -20 23.5 -35.5t87.5 -27.5l164 -29q162 -29 235.5 -106.5t73.5 -190.5q0 -100 -53.5 -182t-165 -131t-287.5 -49q-152 0 -287 45t-231 133z" />
<glyph unicode="t" horiz-adv-x="907" d="M16 739v285h861v-285h-861zM184 328v919l414 115v-969q0 -72 32 -102.5t95 -30.5q45 0 78 8t61 27l27 -242q-49 -35 -133 -54t-164 -19q-131 0 -222 34.5t-139.5 110.5t-48.5 203z" />
<glyph unicode="u" horiz-adv-x="1267" d="M96 336v688h414v-592q0 -78 28.5 -110.5t84.5 -32.5q29 0 53 11t41.5 33.5t27 59.5t9.5 86v545h413v-1024h-370l-11 205q-47 -113 -135 -169t-213 -56q-104 0 -181 35.5t-119 114.5t-42 206z" />
<glyph unicode="v" horiz-adv-x="1177" d="M-12 1024h432l170 -752l172 752h428l-348 -1024h-506z" />
<glyph unicode="w" horiz-adv-x="1888" d="M-4 1024h430l143 -727l172 727h406l172 -727l143 727h430l-293 -1024h-505l-152 561l-147 -561h-506z" />
<glyph unicode="x" horiz-adv-x="1247" d="M-8 0l399 573l158 -22l235 473h461l-381 -555l-170 12l-237 -481h-465zM4 1024h469l232 -471l151 18l397 -571h-471l-235 475l-156 -8z" />
<glyph unicode="y" horiz-adv-x="1185" d="M-8 -373l78 269q35 -20 74.5 -30.5t107.5 -10.5q63 0 98 16t51 59l15 39l-123 291l-299 764h452l123 -555l43 -227l52 233l127 549h407l-334 -963q-61 -184 -138 -293.5t-181.5 -158.5t-253.5 -49q-92 0 -168 18.5t-131 48.5z" />
<glyph unicode="z" horiz-adv-x="1044" d="M57 0v244l361 403l100 101l-153 -5h-308v281h920v-244l-356 -399l-105 -105l174 5h305v-281h-938z" />
<glyph unicode="{" horiz-adv-x="911" d="M94 424v254q125 0 177.5 49t52.5 164v225q0 141 54 224t175 120t317 37v-254q-117 0 -170 -44t-53 -142v-260q0 -98 -48 -157.5t-140 -86.5q92 -31 140 -90.5t48 -157.5v-258q0 -100 53.5 -144t169.5 -44v-252q-197 0 -317.5 35.5t-174.5 119.5t-54 226v223 q0 115 -52.5 164t-177.5 49z" />
<glyph unicode="|" horiz-adv-x="712" d="M174 -344v1790h365v-1790h-365z" />
<glyph unicode="}" horiz-adv-x="911" d="M39 -141q117 0 171 44t54 144v258q0 98 47 157.5t142 88.5q-94 29 -141.5 88t-47.5 158v258q0 100 -54 144t-171 44v254q199 0 318.5 -37t175 -120t55.5 -226v-223q0 -115 52 -164t177 -49v-254q-125 0 -177 -49t-52 -164v-223q0 -143 -55.5 -226.5t-175 -119 t-318.5 -35.5v252z" />
<glyph unicode="~" horiz-adv-x="1263" d="M88 483q8 211 96 320.5t256 109.5q72 0 121 -18t86 -43t66.5 -43t62.5 -18q39 0 59.5 25.5t28.5 82.5h312q-8 -209 -96.5 -319.5t-254.5 -110.5q-74 0 -123 18.5t-84.5 44t-65.5 43t-65 17.5q-39 0 -59 -25.5t-29 -83.5h-311z" />
<glyph unicode="&#xa1;" horiz-adv-x="634" d="M98 854q0 88 58.5 137t162.5 49t162 -49t58 -137q0 -86 -58 -135t-162 -49t-162.5 49t-58.5 135zM102 55l45 523h342l46 -523v-383h-433v383z" />
<glyph unicode="&#xa2;" horiz-adv-x="1183" d="M68 512q0 170 68.5 289t194.5 181t298 62q170 0 277.5 -47t162.5 -122.5t72 -163.5l-299 -103q-10 92 -60.5 140.5t-130.5 48.5q-106 0 -165.5 -63.5t-59.5 -225.5q0 -109 29.5 -170.5t81 -86t114.5 -24.5q57 0 97 19.5t66 58.5t34 96l293 -102q-14 -94 -79 -166 t-170.5 -112.5t-246.5 -40.5q-184 0 -312 62t-196.5 181t-68.5 289zM514 -205v1434h244v-1434h-244z" />
<glyph unicode="&#xa3;" horiz-adv-x="1273" d="M57 174q0 66 37 110t97.5 64.5t132.5 20.5q90 0 154.5 -11.5t111.5 -29t87 -35t83 -29.5t96 -12q66 0 96.5 39t24.5 119l254 -33q16 -115 -17.5 -205t-106.5 -141t-173 -51q-88 0 -155.5 25.5t-124 62t-108.5 75.5t-107.5 63.5t-121.5 24.5q-39 0 -59 -14t-20 -41 q0 -29 21.5 -43t53.5 -14q43 0 68 19.5t36 66.5t11 121q0 90 -31.5 163.5t-101.5 178.5q-41 68 -65.5 117t-35 95t-10.5 95q0 111 59.5 201t173 143t275.5 53q205 0 332 -92t164 -281l-332 -118q-23 109 -67 155.5t-115 46.5q-61 0 -102.5 -34.5t-41.5 -98.5 q0 -25 8.5 -51.5t28 -64t47.5 -95.5q39 -72 65 -151.5t26 -151.5q0 -88 -26 -169t-76 -145.5t-124 -103t-168 -38.5q-106 0 -180 49t-74 145zM86 547v170h913v-170h-913z" />
<glyph unicode="&#xa4;" horiz-adv-x="1310" d="M49 305l322 277l190 -189l-276 -323zM49 1044l236 234l276 -322l-188 -188zM217 676q0 127 55.5 221t154.5 148.5t230 54.5q129 0 227.5 -54.5t154 -148.5t55.5 -221t-55.5 -222.5t-154 -149.5t-227.5 -54q-131 0 -230 54t-154.5 149.5t-55.5 222.5zM518 676 q0 -66 38 -105t101 -39q61 0 98.5 39t37.5 105t-37.5 103.5t-98.5 37.5q-63 0 -101 -38t-38 -103zM756 381l192 190l312 -266l-236 -235zM756 967l268 311l236 -234l-310 -270z" />
<glyph unicode="&#xa5;" horiz-adv-x="1398" d="M29 1352h422l159 -371l88 -211h4l86 213l162 369h420l-444 -729l135 8h233v-123h-393v-129h393v-119h-393v-260h-405v260h-392v119h392v129h-392v123h234l135 -8z" />
<glyph unicode="&#xa6;" horiz-adv-x="712" d="M174 -344v790h365v-790h-365zM174 657v789h365v-789h-365z" />
<glyph unicode="&#xa7;" horiz-adv-x="1292" d="M41 586q0 111 49 181.5t132 113.5t186 67l122 -205q-76 -18 -122 -34.5t-67.5 -37t-21.5 -50.5q0 -43 39 -62.5t117 -34.5l318 -61q166 -31 249.5 -105.5t83.5 -212.5q0 -119 -59 -201.5t-167.5 -125.5t-260.5 -43q-170 0 -314.5 50t-226.5 148l205 191 q51 -68 146.5 -104.5t191.5 -36.5q80 0 136.5 20t56.5 63q0 33 -35 48.5t-127 35.5l-299 62q-109 25 -182.5 66.5t-111.5 107.5t-38 160zM166 981q0 119 61.5 206t174 136t264.5 49q176 0 287.5 -50t197.5 -148l-203 -187q-57 66 -135 99.5t-166 33.5q-96 0 -135 -26.5 t-39 -63.5q0 -25 15.5 -43t59.5 -33.5t126 -31.5l172 -31q139 -27 227 -70t129 -103.5t41 -146.5q0 -117 -48 -196.5t-132 -128.5t-195 -72l-129 207q82 14 131.5 31.5t73 39t23.5 52.5q0 43 -38 64.5t-95 31.5l-375 72q-86 16 -152.5 61t-103.5 109.5t-37 138.5z" />
<glyph unicode="&#xa8;" horiz-adv-x="1024" d="M84 1292q0 84 50 129t140 45q94 0 145.5 -45t51.5 -129q0 -82 -51 -128t-146 -46q-90 0 -140 46t-50 128zM553 1292q0 84 50 129t140 45q94 0 145.5 -45t51.5 -129q0 -82 -51 -128t-146 -46q-90 0 -140 46t-50 128z" />
<glyph unicode="&#xa9;" horiz-adv-x="1546" d="M66 676q0 209 91 364.5t251.5 243.5t363.5 88q207 0 365.5 -88t251 -243.5t92.5 -364.5q0 -207 -92.5 -363.5t-251 -244.5t-365.5 -88q-203 0 -363.5 88t-251.5 244.5t-91 363.5zM258 676q0 -152 64.5 -267.5t180 -180t269.5 -64.5q156 0 271.5 64.5t180 180t64.5 267.5 q0 154 -64.5 268.5t-180 179t-271.5 64.5q-154 0 -269.5 -64.5t-180 -179.5t-64.5 -268zM387 676q0 180 104.5 287.5t292.5 107.5q145 0 238.5 -64.5t128.5 -172.5l-231 -111q-20 41 -49 55.5t-72 14.5q-55 0 -89 -30t-34 -87t33.5 -88t91.5 -31q39 0 71.5 14.5t51.5 61.5 l221 -109q-51 -131 -135.5 -188t-225.5 -57q-188 0 -292.5 108.5t-104.5 288.5z" />
<glyph unicode="&#xaa;" horiz-adv-x="937" d="M53 801q0 90 58.5 135t183.5 72l219 45v-111l-98 -24q-39 -10 -58.5 -31t-19.5 -49q0 -29 18.5 -43.5t44.5 -14.5q23 0 42.5 9.5t31.5 29t12 49.5v205q0 39 -20.5 61.5t-58.5 22.5q-37 0 -65 -20.5t-36 -77.5l-248 45q14 115 106.5 182.5t256.5 67.5q186 0 275 -72 t89 -219v-215q0 -31 14.5 -46.5t39.5 -15.5q27 0 39 7l-23 -154q-25 -14 -53.5 -20.5t-71.5 -6.5q-90 0 -145.5 45t-55.5 136v41l37 -5q-6 -59 -39.5 -109t-93 -79t-143.5 -29q-117 0 -177.5 53.5t-60.5 135.5zM76 272v207h780v-207h-780z" />
<glyph unicode="&#xab;" horiz-adv-x="1265" d="M59 543l256 401h347l-242 -401l242 -402h-347zM604 543l256 401h347l-242 -401l242 -402h-347z" />
<glyph unicode="&#xac;" d="M123 530v283h991v-283h-991zM793 174v465h321v-465h-321z" />
<glyph unicode="&#xad;" horiz-adv-x="1093" d="M160 391v324h776v-324h-776z" />
<glyph unicode="&#xae;" horiz-adv-x="1546" d="M66 676q0 209 91 364.5t251.5 243.5t363.5 88q207 0 365.5 -88t251 -243.5t92.5 -364.5q0 -207 -92.5 -363.5t-251 -244.5t-365.5 -88q-203 0 -363.5 88t-251.5 244.5t-91 363.5zM258 676q0 -152 64.5 -267.5t180 -180t269.5 -64.5q156 0 271.5 64.5t180 180t64.5 267.5 q0 154 -64.5 268.5t-180 179t-271.5 64.5q-154 0 -269.5 -64.5t-180 -179.5t-64.5 -268zM467 315v742h375q76 0 134 -32t93 -87t35 -127q0 -119 -80 -183.5t-215 -64.5h-111v-248h-231zM698 721h78q41 0 65.5 15.5t24.5 54.5t-24.5 55t-65.5 16h-78v-141zM705 606l202 47 l215 -338h-282z" />
<glyph unicode="&#xaf;" horiz-adv-x="1024" d="M127 1145v244h770v-244h-770z" />
<glyph unicode="&#xb0;" horiz-adv-x="1040" d="M82 977q0 121 54 210t151.5 137t232.5 48q137 0 233.5 -48t150.5 -137t54 -210q0 -123 -54 -212t-150.5 -137t-233.5 -48q-135 0 -232.5 48t-151.5 137t-54 212zM375 977q0 -61 41 -102t104 -41q66 0 106 40.5t40 102.5q0 63 -40 102t-106 39q-63 0 -104 -39t-41 -102z " />
<glyph unicode="&#xb1;" d="M98 2v262h1041v-262h-1041zM98 737v273h1041v-273h-1041zM475 401v942h289v-942h-289z" />
<glyph unicode="&#xb2;" horiz-adv-x="823" d="M23 1192q2 143 103 228t273 85q139 0 221 -41t118 -102.5t36 -124.5q0 -49 -19.5 -93t-55 -83t-89.5 -74q-37 -27 -82 -46t-94 -36v-4q37 4 94.5 6t114.5 2h139v-227h-731v180q51 25 95 48.5t85 47.5q84 51 136.5 96.5t76 84.5t23.5 73q0 33 -17.5 52.5t-56.5 19.5 q-45 0 -66.5 -37t-19.5 -106z" />
<glyph unicode="&#xb3;" horiz-adv-x="790" d="M8 897l266 74q6 -49 33 -73t72 -24q41 0 61.5 19.5t20.5 52.5q0 35 -22.5 48.5t-69.5 13.5h-16.5t-18.5 -2v143q8 -2 16 -2h15q41 0 62.5 18.5t21.5 53.5t-18.5 51t-53.5 16q-37 0 -63.5 -22.5t-30.5 -71.5l-258 72q20 117 123.5 179t257.5 62t239.5 -60.5t85.5 -174.5 q0 -51 -20.5 -90t-59.5 -61.5t-94 -26.5v-9q63 0 105.5 -20.5t64 -57t21.5 -90.5q0 -74 -49.5 -129t-134.5 -85.5t-193 -30.5q-156 0 -247 61.5t-116 165.5z" />
<glyph unicode="&#xb4;" horiz-adv-x="1062" d="M281 1145l129 358h375l-211 -358h-293z" />
<glyph unicode="&#xb5;" horiz-adv-x="1271" d="M100 -430v1454h414v-586q0 -82 27.5 -115.5t83.5 -33.5q41 0 70.5 21.5t46 65.5t16.5 113v535h413v-1024h-368l-12 193q-39 -104 -112 -157.5t-169 -53.5q-33 0 -61.5 6t-53.5 20l119 170v-608h-414z" />
<glyph unicode="&#xb6;" horiz-adv-x="1599" d="M66 850q0 168 74.5 279.5t207.5 167t305 55.5h828v-1557h-332v1245h-205v-1245h-334v557q-154 2 -277.5 56.5t-195 165t-71.5 276.5zM387 852q0 -57 25.5 -99t72.5 -64.5t117 -22.5v374q-70 0 -117 -23.5t-72.5 -65.5t-25.5 -99z" />
<glyph unicode="&#xb7;" horiz-adv-x="595" d="M68 723q0 96 61.5 149.5t167.5 53.5q111 0 170.5 -53t59.5 -150q0 -96 -59.5 -149t-170.5 -53q-106 0 -167.5 53t-61.5 149z" />
<glyph unicode="&#xb8;" horiz-adv-x="1024" d="M254 -381l61 184q25 -16 52.5 -25t66.5 -9q51 0 83 28.5t32 77.5q0 45 -44 81t-161 69l82 57q176 -18 261 -81.5t85 -178.5q0 -121 -80 -191.5t-223 -70.5q-84 0 -131 18.5t-84 40.5z" />
<glyph unicode="&#xb9;" horiz-adv-x="651" d="M45 1133v237q47 6 104.5 25.5t108 46t70.5 53.5h245v-813h-288v418q0 23 1 56.5t3 70.5q-49 -35 -110.5 -59.5t-133.5 -34.5z" />
<glyph unicode="&#xba;" horiz-adv-x="911" d="M66 983q0 176 105 273.5t286 97.5q178 0 283.5 -97.5t105.5 -273.5t-105.5 -273.5t-283.5 -97.5q-180 0 -285.5 97.5t-105.5 273.5zM74 272v207h764v-207h-764zM365 983q0 -100 21.5 -142t70.5 -42t68.5 42t19.5 142q0 98 -19.5 141t-68.5 43t-70.5 -43t-21.5 -141z" />
<glyph unicode="&#xbb;" horiz-adv-x="1265" d="M59 141l242 402l-242 401h347l258 -401l-258 -402h-347zM604 141l242 402l-242 401h346l256 -401l-256 -402h-346z" />
<glyph unicode="&#xbc;" horiz-adv-x="1847" d="M45 1000v237q47 6 104.5 25.5t108 46t70.5 53.5h245v-813h-288v418q0 23 1 56.5t3 70.5q-49 -35 -110.5 -59.5t-133.5 -34.5zM284 0l975 1354h275l-975 -1354h-275zM1039 154v131l315 522h352v-461h117v-192h-117v-162h-254v162h-413zM1284 346h168v131q0 43 2 86t4 82 h-6q-12 -31 -28.5 -64.5t-32.5 -62.5z" />
<glyph unicode="&#xbd;" horiz-adv-x="1988" d="M45 1000v237q47 6 104.5 25.5t108 46t70.5 53.5h245v-813h-288v418q0 23 1 56.5t3 70.5q-49 -35 -110.5 -59.5t-133.5 -34.5zM284 0l975 1354h275l-975 -1354h-275zM1190 502q2 143 103 228t273 85q139 0 221 -41t118 -102.5t36 -124.5q0 -49 -19.5 -93t-55 -83 t-89.5 -74q-37 -27 -82 -46t-94 -36v-4q37 4 94.5 6t114.5 2h139v-227h-731v180q51 25 95 48.5t85 47.5q84 51 136.5 96.5t76 84.5t23.5 73q0 33 -17.5 52.5t-56.5 19.5q-45 0 -66.5 -37t-19.5 -106z" />
<glyph unicode="&#xbe;" horiz-adv-x="1986" d="M8 764l266 74q6 -49 33 -73t72 -24q41 0 61.5 19.5t20.5 52.5q0 35 -22.5 48.5t-69.5 13.5h-16.5t-18.5 -2v143q8 -2 16 -2h15q41 0 62.5 18.5t21.5 53.5t-18.5 51t-53.5 16q-37 0 -63.5 -22.5t-30.5 -71.5l-258 72q20 117 123.5 179t257.5 62t239.5 -60.5t85.5 -174.5 q0 -51 -20.5 -90t-59.5 -61.5t-94 -26.5v-9q63 0 105.5 -20.5t64 -57t21.5 -90.5q0 -74 -49.5 -129t-134.5 -85.5t-193 -30.5q-156 0 -247 61.5t-116 165.5zM424 0l975 1354h275l-975 -1354h-275zM1178 154v131l315 522h352v-461h117v-192h-117v-162h-254v162h-413z M1423 346h168v131q0 43 2 86t4 82h-6q-12 -31 -28.5 -64.5t-32.5 -62.5z" />
<glyph unicode="&#xbf;" horiz-adv-x="1290" d="M80 43q0 129 53 209t142.5 120t195.5 50l29 162h354l-2 -316q-123 -4 -192.5 -27.5t-100.5 -59.5t-31 -81q0 -39 14.5 -65.5t44 -39.5t75.5 -13q74 0 113.5 45t49.5 135l404 -127q-25 -109 -93.5 -195t-190.5 -136t-310 -50q-158 0 -284 42t-198.5 129t-72.5 218z M451 856q0 88 57 136t162 48q102 0 160.5 -48t58.5 -136t-58.5 -136t-160.5 -48q-104 0 -161.5 48t-57.5 136z" />
<glyph unicode="&#xc0;" horiz-adv-x="1400" d="M-6 0l455 1352h501l457 -1352h-430l-76 281h-412l-77 -281h-418zM383 1804h360l121 -340h-295zM559 551h275l-138 504z" />
<glyph unicode="&#xc1;" horiz-adv-x="1400" d="M-6 0l455 1352h501l457 -1352h-430l-76 281h-412l-77 -281h-418zM530 1464l121 340h360l-186 -340h-295zM559 551h275l-138 504z" />
<glyph unicode="&#xc2;" horiz-adv-x="1400" d="M-6 0l455 1352h501l457 -1352h-430l-76 281h-412l-77 -281h-418zM301 1464l198 340h398l198 -340h-274l-123 178l-123 -178h-274zM559 551h275l-138 504z" />
<glyph unicode="&#xc3;" horiz-adv-x="1400" d="M-6 0l455 1352h501l457 -1352h-430l-76 281h-412l-77 -281h-418zM278 1458q6 174 85 259.5t196 85.5q55 0 94 -16.5t66.5 -38t53 -38t54.5 -16.5q33 0 48.5 25.5t21.5 81.5h219q-2 -117 -39 -194t-95.5 -115t-125.5 -38q-57 0 -99.5 17.5t-74 39t-58 38t-55.5 16.5 q-31 0 -47.5 -25.5t-22.5 -81.5h-221zM559 551h275l-138 504z" />
<glyph unicode="&#xc4;" horiz-adv-x="1400" d="M-6 0l455 1352h501l457 -1352h-430l-76 281h-412l-77 -281h-418zM270 1620q0 84 50 129t140 45q94 0 145.5 -45t51.5 -129q0 -82 -51 -128t-146 -46q-90 0 -140 46t-50 128zM559 551h275l-138 504zM739 1620q0 84 50 129t140 45q94 0 145.5 -45t51.5 -129q0 -82 -51 -128 t-146 -46q-90 0 -140 46t-50 128z" />
<glyph unicode="&#xc5;" horiz-adv-x="1400" d="M-6 0l455 1352h501l457 -1352h-430l-76 281h-412l-77 -281h-418zM403 1458q0 121 81 192.5t214 71.5q135 0 216 -71.5t81 -192.5q0 -119 -81 -190.5t-216 -71.5q-133 0 -214 71.5t-81 190.5zM559 551h275l-138 504zM602 1460q0 -45 26.5 -70.5t71.5 -25.5q43 0 69.5 25.5 t26.5 70.5q0 43 -26.5 68.5t-69.5 25.5q-45 0 -71.5 -25.5t-26.5 -68.5z" />
<glyph unicode="&#xc6;" horiz-adv-x="1869" d="M-14 0l503 1352h1309v-297h-571v-242h438v-276h-438v-240h598v-297h-985v389h-316l-123 -389h-415zM598 645h242v424h-101z" />
<glyph unicode="&#xc7;" horiz-adv-x="1390" d="M74 676q0 219 82 374.5t234.5 238.5t359.5 83q147 0 271 -41t210 -127t117 -223l-363 -145q-23 131 -79 174t-144 43q-82 0 -140.5 -42t-88 -125t-29.5 -210q0 -125 27.5 -209t86 -126t152.5 -42q84 0 141.5 49t75.5 154l373 -101q-37 -150 -124 -244t-211 -135.5 t-273 -41.5q-209 0 -361.5 82.5t-234.5 238.5t-82 375zM465 -381l61 184q25 -16 52.5 -25t66.5 -9q51 0 83 28.5t32 77.5q0 45 -44 81t-161 69l82 57q176 -18 261 -81.5t85 -178.5q0 -121 -80 -191.5t-223 -70.5q-84 0 -131 18.5t-84 40.5z" />
<glyph unicode="&#xc8;" horiz-adv-x="1286" d="M125 0v1352h1089v-314h-671v-219h536v-291h-536v-215h698v-313h-1116zM357 1804h360l121 -340h-295z" />
<glyph unicode="&#xc9;" horiz-adv-x="1286" d="M125 0v1352h1089v-314h-671v-219h536v-291h-536v-215h698v-313h-1116zM483 1464l121 340h360l-186 -340h-295z" />
<glyph unicode="&#xca;" horiz-adv-x="1286" d="M125 0v1352h1089v-314h-671v-219h536v-291h-536v-215h698v-313h-1116zM273 1464l198 340h398l198 -340h-274l-123 178l-123 -178h-274z" />
<glyph unicode="&#xcb;" horiz-adv-x="1286" d="M125 0v1352h1089v-314h-671v-219h536v-291h-536v-215h698v-313h-1116zM242 1620q0 84 50 129t140 45q94 0 145.5 -45t51.5 -129q0 -82 -51 -128t-146 -46q-90 0 -140 46t-50 128zM711 1620q0 84 50 129t140 45q94 0 145.5 -45t51.5 -129q0 -82 -51 -128t-146 -46 q-90 0 -140 46t-50 128z" />
<glyph unicode="&#xcc;" horiz-adv-x="667" d="M17 1804h360l121 -340h-295zM125 0v1352h418v-1352h-418z" />
<glyph unicode="&#xcd;" horiz-adv-x="667" d="M125 0v1352h418v-1352h-418zM170 1464l121 340h360l-186 -340h-295z" />
<glyph unicode="&#xce;" horiz-adv-x="667" d="M-63 1464l198 340h398l198 -340h-274l-123 178l-123 -178h-274zM125 0v1352h418v-1352h-418z" />
<glyph unicode="&#xcf;" horiz-adv-x="667" d="M-74 1620q0 84 49.5 129t135.5 45q90 0 140 -45t50 -129q0 -82 -50 -128t-140 -46q-86 0 -135.5 46t-49.5 128zM125 0v1352h418v-1352h-418zM367 1620q0 84 49 129t135 45q90 0 141 -45t51 -129q0 -82 -51 -128t-141 -46q-86 0 -135 46t-49 128z" />
<glyph unicode="&#xd0;" horiz-adv-x="1521" d="M16 535v278h799v-278h-799zM178 0v1352h621q317 0 482 -176.5t165 -499.5q0 -322 -165 -499t-482 -177h-621zM596 305h152q150 0 210 91t60 280q0 188 -60.5 279.5t-209.5 91.5h-152v-742z" />
<glyph unicode="&#xd1;" horiz-adv-x="1523" d="M125 0v1352h457l368 -670l88 -182h2l-8 266v586h367v-1352h-459l-369 670l-86 182h-4l8 -266v-586h-364zM344 1458q6 174 85 259.5t196 85.5q55 0 94 -16.5t66.5 -38t53 -38t54.5 -16.5q33 0 48.5 25.5t21.5 81.5h219q-2 -117 -39 -194t-95.5 -115t-125.5 -38 q-57 0 -99.5 17.5t-74 39t-58 38t-55.5 16.5q-31 0 -47.5 -25.5t-22.5 -81.5h-221z" />
<glyph unicode="&#xd2;" horiz-adv-x="1501" d="M74 676q0 219 82 374.5t234.5 238.5t361.5 83q211 0 361.5 -83t231 -238.5t80.5 -374.5t-80.5 -375t-231 -238.5t-361.5 -82.5q-209 0 -361.5 82.5t-234.5 238.5t-82 375zM435 1804h360l121 -340h-295zM504 676q0 -127 27.5 -210t82 -125t138.5 -42q82 0 137 42t81.5 125 t26.5 210q0 129 -26.5 211t-81.5 124t-137 42q-84 0 -138.5 -42t-82 -124t-27.5 -211z" />
<glyph unicode="&#xd3;" horiz-adv-x="1501" d="M74 676q0 219 82 374.5t234.5 238.5t361.5 83q211 0 361.5 -83t231 -238.5t80.5 -374.5t-80.5 -375t-231 -238.5t-361.5 -82.5q-209 0 -361.5 82.5t-234.5 238.5t-82 375zM504 676q0 -127 27.5 -210t82 -125t138.5 -42q82 0 137 42t81.5 125t26.5 210q0 129 -26.5 211 t-81.5 124t-137 42q-84 0 -138.5 -42t-82 -124t-27.5 -211zM584 1464l121 340h360l-186 -340h-295z" />
<glyph unicode="&#xd4;" horiz-adv-x="1501" d="M74 676q0 219 82 374.5t234.5 238.5t361.5 83q211 0 361.5 -83t231 -238.5t80.5 -374.5t-80.5 -375t-231 -238.5t-361.5 -82.5q-209 0 -361.5 82.5t-234.5 238.5t-82 375zM355 1464l198 340h398l198 -340h-274l-123 178l-123 -178h-274zM504 676q0 -127 27.5 -210 t82 -125t138.5 -42q82 0 137 42t81.5 125t26.5 210q0 129 -26.5 211t-81.5 124t-137 42q-84 0 -138.5 -42t-82 -124t-27.5 -211z" />
<glyph unicode="&#xd5;" horiz-adv-x="1501" d="M74 676q0 219 82 374.5t234.5 238.5t361.5 83q211 0 361.5 -83t231 -238.5t80.5 -374.5t-80.5 -375t-231 -238.5t-361.5 -82.5q-209 0 -361.5 82.5t-234.5 238.5t-82 375zM332 1458q6 174 85 259.5t196 85.5q55 0 94 -16.5t66.5 -38t53 -38t54.5 -16.5q33 0 48.5 25.5 t21.5 81.5h219q-2 -117 -39 -194t-95.5 -115t-125.5 -38q-57 0 -99.5 17.5t-74 39t-58 38t-55.5 16.5q-31 0 -47.5 -25.5t-22.5 -81.5h-221zM504 676q0 -127 27.5 -210t82 -125t138.5 -42q82 0 137 42t81.5 125t26.5 210q0 129 -26.5 211t-81.5 124t-137 42 q-84 0 -138.5 -42t-82 -124t-27.5 -211z" />
<glyph unicode="&#xd6;" horiz-adv-x="1501" d="M74 676q0 219 82 374.5t234.5 238.5t361.5 83q211 0 361.5 -83t231 -238.5t80.5 -374.5t-80.5 -375t-231 -238.5t-361.5 -82.5q-209 0 -361.5 82.5t-234.5 238.5t-82 375zM324 1620q0 84 50 129t140 45q94 0 145.5 -45t51.5 -129q0 -82 -51 -128t-146 -46q-90 0 -140 46 t-50 128zM504 676q0 -127 27.5 -210t82 -125t138.5 -42q82 0 137 42t81.5 125t26.5 210q0 129 -26.5 211t-81.5 124t-137 42q-84 0 -138.5 -42t-82 -124t-27.5 -211zM793 1620q0 84 50 129t140 45q94 0 145.5 -45t51.5 -129q0 -82 -51 -128t-146 -46q-90 0 -140 46t-50 128z " />
<glyph unicode="&#xd7;" d="M90 365l217 -218l838 838l-215 217zM90 985l840 -838l215 218l-838 837z" />
<glyph unicode="&#xd8;" horiz-adv-x="1501" d="M74 676q0 219 82 374.5t234.5 238.5t361.5 83q211 0 361.5 -83t231 -238.5t80.5 -374.5t-80.5 -375t-231 -238.5t-361.5 -82.5q-209 0 -361.5 82.5t-234.5 238.5t-82 375zM109 -49l274 352l113 -86l-220 -266h-167zM432 354l500 678l108 -80l-505 -684zM504 676 q0 -127 27.5 -210t82 -125t138.5 -42q82 0 137 42t81.5 125t26.5 210q0 129 -26.5 211t-81.5 124t-137 42q-84 0 -138.5 -42t-82 -124t-27.5 -211zM997 1118l226 277h170l-283 -363z" />
<glyph unicode="&#xd9;" horiz-adv-x="1456" d="M98 567v785h420v-807q0 -123 53.5 -184.5t157.5 -61.5t157.5 61.5t53.5 184.5v807h418v-785q0 -295 -158 -441t-471 -146q-315 0 -473 146t-158 441zM416 1794h360l121 -340h-295z" />
<glyph unicode="&#xda;" horiz-adv-x="1456" d="M98 567v785h420v-807q0 -123 53.5 -184.5t157.5 -61.5t157.5 61.5t53.5 184.5v807h418v-785q0 -295 -158 -441t-471 -146q-315 0 -473 146t-158 441zM561 1454l121 340h360l-186 -340h-295z" />
<glyph unicode="&#xdb;" horiz-adv-x="1456" d="M98 567v785h420v-807q0 -123 53.5 -184.5t157.5 -61.5t157.5 61.5t53.5 184.5v807h418v-785q0 -295 -158 -441t-471 -146q-315 0 -473 146t-158 441zM332 1454l198 340h398l198 -340h-274l-123 178l-123 -178h-274z" />
<glyph unicode="&#xdc;" horiz-adv-x="1456" d="M98 567v785h420v-807q0 -123 53.5 -184.5t157.5 -61.5t157.5 61.5t53.5 184.5v807h418v-785q0 -295 -158 -441t-471 -146q-315 0 -473 146t-158 441zM301 1609q0 84 50 129t140 45q94 0 145.5 -45t51.5 -129q0 -82 -51 -128t-146 -46q-90 0 -140 46t-50 128zM770 1609 q0 84 50 129t140 45q94 0 145.5 -45t51.5 -129q0 -82 -51 -128t-146 -46q-90 0 -140 46t-50 128z" />
<glyph unicode="&#xdd;" horiz-adv-x="1406" d="M18 1352h424l164 -338l101 -236l98 236l166 338h415l-473 -873v-479h-419v479zM534 1456l121 340h360l-186 -340h-295z" />
<glyph unicode="&#xde;" horiz-adv-x="1415" d="M125 0v1352h418v-1352h-418zM334 221v303h407q184 0 185 170q0 82 -48.5 121t-136.5 39h-407v305h467q260 0 403.5 -118.5t143.5 -350.5q0 -231 -143.5 -350t-403.5 -119h-467z" />
<glyph unicode="&#xdf;" horiz-adv-x="1345" d="M100 0v918q0 172 61.5 291.5t198 183t359.5 63.5q178 0 300 -51t185.5 -139t63.5 -207q0 -86 -40 -162t-115 -122t-179 -48v-4q111 0 190.5 -44t124.5 -123t45 -187q0 -102 -46 -191.5t-143 -143.5t-251 -54q-90 0 -160.5 17t-115.5 48l59 260q25 -16 54.5 -27.5 t72.5 -11.5q63 0 102 43t39 117q0 72 -46 110.5t-130 38.5h-108l45 281h47q78 0 116.5 45t38.5 117q0 74 -44 112.5t-117 38.5q-102 0 -147.5 -63.5t-45.5 -206.5v-899h-414z" />
<glyph unicode="&#xe0;" horiz-adv-x="1196" d="M49 256q0 113 68.5 184.5t208.5 98.5l370 77l-2 -174l-151 -34q-51 -10 -75 -34t-24 -65q0 -39 27 -60.5t66 -21.5q27 0 49 8.5t39.5 24.5t28 41t10.5 59v285q0 57 -30 91t-87 34q-53 0 -91 -28.5t-48 -108.5l-351 63q20 160 149.5 254t368.5 94q164 0 276 -46t167 -134 t55 -211v-344q0 -82 76 -82q31 0 47 9l-20 -224q-68 -33 -168 -32q-88 0 -156 27.5t-106.5 80.5t-38.5 139v17l41 6q0 -82 -50.5 -143.5t-131.5 -94t-179 -32.5q-106 0 -182 32.5t-116 94t-40 149.5zM217 1503h375l129 -358h-295z" />
<glyph unicode="&#xe1;" horiz-adv-x="1196" d="M49 256q0 113 68.5 184.5t208.5 98.5l370 77l-2 -174l-151 -34q-51 -10 -75 -34t-24 -65q0 -39 27 -60.5t66 -21.5q27 0 49 8.5t39.5 24.5t28 41t10.5 59v285q0 57 -30 91t-87 34q-53 0 -91 -28.5t-48 -108.5l-351 63q20 160 149.5 254t368.5 94q164 0 276 -46t167 -134 t55 -211v-344q0 -82 76 -82q31 0 47 9l-20 -224q-68 -33 -168 -32q-88 0 -156 27.5t-106.5 80.5t-38.5 139v17l41 6q0 -82 -50.5 -143.5t-131.5 -94t-179 -32.5q-106 0 -182 32.5t-116 94t-40 149.5zM391 1145l129 358h375l-211 -358h-293z" />
<glyph unicode="&#xe2;" horiz-adv-x="1196" d="M49 256q0 113 68.5 184.5t208.5 98.5l370 77l-2 -174l-151 -34q-51 -10 -75 -34t-24 -65q0 -39 27 -60.5t66 -21.5q27 0 49 8.5t39.5 24.5t28 41t10.5 59v285q0 57 -30 91t-87 34q-53 0 -91 -28.5t-48 -108.5l-351 63q20 160 149.5 254t368.5 94q164 0 276 -46t167 -134 t55 -211v-344q0 -82 76 -82q31 0 47 9l-20 -224q-68 -33 -168 -32q-88 0 -156 27.5t-106.5 80.5t-38.5 139v17l41 6q0 -82 -50.5 -143.5t-131.5 -94t-179 -32.5q-106 0 -182 32.5t-116 94t-40 149.5zM151 1130l221 361h390l221 -361h-289l-127 164l-127 -164h-289z" />
<glyph unicode="&#xe3;" horiz-adv-x="1196" d="M49 256q0 113 68.5 184.5t208.5 98.5l370 77l-2 -174l-151 -34q-51 -10 -75 -34t-24 -65q0 -39 27 -60.5t66 -21.5q27 0 49 8.5t39.5 24.5t28 41t10.5 59v285q0 57 -30 91t-87 34q-53 0 -91 -28.5t-48 -108.5l-351 63q20 160 149.5 254t368.5 94q164 0 276 -46t167 -134 t55 -211v-344q0 -82 76 -82q31 0 47 9l-20 -224q-68 -33 -168 -32q-88 0 -156 27.5t-106.5 80.5t-38.5 139v17l41 6q0 -82 -50.5 -143.5t-131.5 -94t-179 -32.5q-106 0 -182 32.5t-116 94t-40 149.5zM147 1130q6 174 85 259.5t196 85.5q55 0 94 -16.5t66.5 -38t53 -38 t54.5 -16.5q33 0 48.5 25.5t21.5 81.5h219q-2 -117 -39 -194t-95.5 -115t-125.5 -38q-57 0 -99.5 17.5t-74 39t-58 38t-55.5 16.5q-31 0 -47.5 -25.5t-22.5 -81.5h-221z" />
<glyph unicode="&#xe4;" horiz-adv-x="1196" d="M49 256q0 113 68.5 184.5t208.5 98.5l370 77l-2 -174l-151 -34q-51 -10 -75 -34t-24 -65q0 -39 27 -60.5t66 -21.5q27 0 49 8.5t39.5 24.5t28 41t10.5 59v285q0 57 -30 91t-87 34q-53 0 -91 -28.5t-48 -108.5l-351 63q20 160 149.5 254t368.5 94q164 0 276 -46t167 -134 t55 -211v-344q0 -82 76 -82q31 0 47 9l-20 -224q-68 -33 -168 -32q-88 0 -156 27.5t-106.5 80.5t-38.5 139v17l41 6q0 -82 -50.5 -143.5t-131.5 -94t-179 -32.5q-106 0 -182 32.5t-116 94t-40 149.5zM139 1292q0 84 50 129t140 45q94 0 145.5 -45t51.5 -129q0 -82 -51 -128 t-146 -46q-90 0 -140 46t-50 128zM608 1292q0 84 50 129t140 45q94 0 145.5 -45t51.5 -129q0 -82 -51 -128t-146 -46q-90 0 -140 46t-50 128z" />
<glyph unicode="&#xe5;" horiz-adv-x="1196" d="M49 256q0 113 68.5 184.5t208.5 98.5l370 77l-2 -174l-151 -34q-51 -10 -75 -34t-24 -65q0 -39 27 -60.5t66 -21.5q27 0 49 8.5t39.5 24.5t28 41t10.5 59v285q0 57 -30 91t-87 34q-53 0 -91 -28.5t-48 -108.5l-351 63q20 160 149.5 254t368.5 94q164 0 276 -46t167 -134 t55 -211v-344q0 -82 76 -82q31 0 47 9l-20 -224q-68 -33 -168 -32q-88 0 -156 27.5t-106.5 80.5t-38.5 139v17l41 6q0 -82 -50.5 -143.5t-131.5 -94t-179 -32.5q-106 0 -182 32.5t-116 94t-40 149.5zM270 1372q0 121 81 192.5t214 71.5q135 0 216 -71.5t81 -192.5 q0 -119 -81 -190.5t-216 -71.5q-133 0 -214 71.5t-81 190.5zM469 1374q0 -45 26.5 -70.5t71.5 -25.5q43 0 69.5 25.5t26.5 70.5q0 43 -26.5 68.5t-69.5 25.5q-45 0 -71.5 -25.5t-26.5 -68.5z" />
<glyph unicode="&#xe6;" horiz-adv-x="1789" d="M47 262q0 111 75 181.5t206 97.5l336 67v31q0 63 -31 97t-90 34q-49 0 -86 -28.5t-49 -108.5l-351 63q12 98 74 176t167 125t247 47q166 0 274.5 -56t147.5 -167l-133 -10q41 76 102 127t139 78.5t170 27.5q162 0 271.5 -62t166 -174t56.5 -257q0 -33 -3 -67.5t-7 -59.5 h-668q6 -88 61.5 -126t128.5 -38q61 0 90 27.5t45 74.5l334 -96q-27 -96 -95.5 -159.5t-163.5 -95t-206 -31.5q-186 0 -305 86t-157 249l81 -20q-14 -66 -47.5 -122t-89 -100t-135 -68.5t-188.5 -24.5q-119 0 -201 32.5t-124 96t-42 153.5zM444 307q0 -35 25 -57.5t68 -22.5 q25 0 47 7.5t40.5 26t29 44t10.5 60.5v73l-121 -28q-51 -12 -75 -34t-24 -69zM1061 602h289q-4 53 -19.5 89t-44.5 54.5t-72 18.5q-66 0 -103.5 -38t-49.5 -124z" />
<glyph unicode="&#xe7;" horiz-adv-x="1165" d="M55 512q0 170 70 289t194.5 181t290.5 62q172 0 284 -48t169 -124.5t65 -160.5l-383 -117q-6 84 -33.5 125t-86.5 41q-51 0 -86 -24.5t-51.5 -80t-16.5 -147.5q0 -94 19.5 -147.5t55.5 -75t81 -21.5q41 0 66.5 17.5t42 51.5t20.5 81l370 -117q-8 -88 -70.5 -159.5 t-171 -114.5t-255.5 -43q-176 0 -305 62t-199 181t-70 289zM348 -381l61 184q25 -16 52.5 -25t66.5 -9q51 0 83 28.5t32 77.5q0 45 -44 81t-161 69l82 57q176 -18 261 -81.5t85 -178.5q0 -121 -80 -191.5t-223 -70.5q-84 0 -131 18.5t-84 40.5z" />
<glyph unicode="&#xe8;" horiz-adv-x="1187" d="M55 512q0 170 70 289t194.5 181t288.5 62q168 0 286 -62t180.5 -173t62.5 -258q0 -35 -3.5 -70t-7.5 -59h-804v180h624l-196 -76q0 117 -32 177.5t-110 60.5q-53 0 -89 -24.5t-53 -82t-17 -151.5t21.5 -148.5t60 -75t98.5 -20.5q66 0 102.5 26.5t52.5 73.5l332 -98 q-25 -94 -99.5 -157.5t-176.5 -95t-215 -31.5q-176 0 -304 62t-197 181t-69 289zM254 1503h375l129 -358h-295z" />
<glyph unicode="&#xe9;" horiz-adv-x="1187" d="M55 512q0 170 70 289t194.5 181t288.5 62q168 0 286 -62t180.5 -173t62.5 -258q0 -35 -3.5 -70t-7.5 -59h-804v180h624l-196 -76q0 117 -32 177.5t-110 60.5q-53 0 -89 -24.5t-53 -82t-17 -151.5t21.5 -148.5t60 -75t98.5 -20.5q66 0 102.5 26.5t52.5 73.5l332 -98 q-25 -94 -99.5 -157.5t-176.5 -95t-215 -31.5q-176 0 -304 62t-197 181t-69 289zM428 1145l129 358h375l-211 -358h-293z" />
<glyph unicode="&#xea;" horiz-adv-x="1187" d="M55 512q0 170 70 289t194.5 181t288.5 62q168 0 286 -62t180.5 -173t62.5 -258q0 -35 -3.5 -70t-7.5 -59h-804v180h624l-196 -76q0 117 -32 177.5t-110 60.5q-53 0 -89 -24.5t-53 -82t-17 -151.5t21.5 -148.5t60 -75t98.5 -20.5q66 0 102.5 26.5t52.5 73.5l332 -98 q-25 -94 -99.5 -157.5t-176.5 -95t-215 -31.5q-176 0 -304 62t-197 181t-69 289zM188 1130l221 361h390l221 -361h-289l-127 164l-127 -164h-289z" />
<glyph unicode="&#xeb;" horiz-adv-x="1187" d="M55 512q0 170 70 289t194.5 181t288.5 62q168 0 286 -62t180.5 -173t62.5 -258q0 -35 -3.5 -70t-7.5 -59h-804v180h624l-196 -76q0 117 -32 177.5t-110 60.5q-53 0 -89 -24.5t-53 -82t-17 -151.5t21.5 -148.5t60 -75t98.5 -20.5q66 0 102.5 26.5t52.5 73.5l332 -98 q-25 -94 -99.5 -157.5t-176.5 -95t-215 -31.5q-176 0 -304 62t-197 181t-69 289zM176 1292q0 84 50 129t140 45q94 0 145.5 -45t51.5 -129q0 -82 -51 -128t-146 -46q-90 0 -140 46t-50 128zM645 1292q0 84 50 129t140 45q94 0 145.5 -45t51.5 -129q0 -82 -51 -128t-146 -46 q-90 0 -140 46t-50 128z" />
<glyph unicode="&#xec;" horiz-adv-x="614" d="M-43 1503h375l129 -358h-295zM100 0v1024h414v-1024h-414z" />
<glyph unicode="&#xed;" horiz-adv-x="614" d="M100 0v1024h414v-1024h-414zM131 1145l129 358h375l-211 -358h-293z" />
<glyph unicode="&#xee;" horiz-adv-x="614" d="M-109 1130l221 361h390l221 -361h-289l-127 164l-127 -164h-289zM100 0v1024h414v-1024h-414z" />
<glyph unicode="&#xef;" horiz-adv-x="614" d="M-84 1292q0 88 46 133t136 45t136.5 -45t46.5 -133t-46.5 -133t-136.5 -45t-136 45t-46 133zM100 0v1024h414v-1024h-414zM334 1292q0 88 46 133t136 45t136 -45t46 -133t-46 -133t-136 -45t-136 45t-46 133z" />
<glyph unicode="&#xf0;" horiz-adv-x="1224" d="M70 502q0 166 62.5 281.5t173 177t253.5 61.5q147 0 223 -70.5t99 -185.5l-17 -8q-12 127 -51 223t-103.5 176t-157.5 157t-214 159h350q82 -41 165 -113t152.5 -176.5t112.5 -242.5t43 -310q0 -215 -71.5 -359.5t-195.5 -218t-284 -73.5q-170 0 -291.5 61t-185 178 t-63.5 283zM360 1233l345 61l49 -114l-371 -72zM485 502q0 -127 33 -182.5t107 -55.5q53 0 85.5 24.5t48 78t15.5 135.5q0 94 -15.5 151.5t-47 83t-84.5 25.5q-49 0 -80 -25.5t-46.5 -83t-15.5 -151.5zM813 1311l336 63l27 -119l-324 -57z" />
<glyph unicode="&#xf1;" horiz-adv-x="1269" d="M100 0v1024h373l19 -395l-43 45q16 119 67 201.5t132 125.5t188 43q104 0 179 -39.5t115.5 -118.5t40.5 -194v-692h-413v586q0 86 -28 117.5t-79 31.5q-39 0 -70.5 -19.5t-49 -62.5t-17.5 -112v-541h-414zM217 1130q6 174 85 259.5t196 85.5q55 0 94 -16.5t66.5 -38 t53 -38t54.5 -16.5q33 0 48.5 25.5t21.5 81.5h219q-2 -117 -39 -194t-95.5 -115t-125.5 -38q-57 0 -99.5 17.5t-74 39t-58 38t-55.5 16.5q-31 0 -47.5 -25.5t-22.5 -81.5h-221z" />
<glyph unicode="&#xf2;" horiz-adv-x="1224" d="M55 512q0 170 71 289t196.5 181t289.5 62q168 0 293 -62t194.5 -181t69.5 -289q0 -168 -69.5 -288t-194.5 -182t-293 -62q-164 0 -289.5 62t-196.5 182t-71 288zM262 1503h375l129 -358h-295zM471 512q0 -92 16.5 -146.5t48 -78t76.5 -23.5q47 0 78 23.5t47.5 78 t16.5 146.5t-16.5 147.5t-47.5 78t-78 22.5q-45 0 -76.5 -22.5t-48 -78t-16.5 -147.5z" />
<glyph unicode="&#xf3;" horiz-adv-x="1224" d="M55 512q0 170 71 289t196.5 181t289.5 62q168 0 293 -62t194.5 -181t69.5 -289q0 -168 -69.5 -288t-194.5 -182t-293 -62q-164 0 -289.5 62t-196.5 182t-71 288zM436 1145l129 358h375l-211 -358h-293zM471 512q0 -92 16.5 -146.5t48 -78t76.5 -23.5q47 0 78 23.5 t47.5 78t16.5 146.5t-16.5 147.5t-47.5 78t-78 22.5q-45 0 -76.5 -22.5t-48 -78t-16.5 -147.5z" />
<glyph unicode="&#xf4;" horiz-adv-x="1224" d="M55 512q0 170 71 289t196.5 181t289.5 62q168 0 293 -62t194.5 -181t69.5 -289q0 -168 -69.5 -288t-194.5 -182t-293 -62q-164 0 -289.5 62t-196.5 182t-71 288zM196 1130l221 361h390l221 -361h-289l-127 164l-127 -164h-289zM471 512q0 -92 16.5 -146.5t48 -78 t76.5 -23.5q47 0 78 23.5t47.5 78t16.5 146.5t-16.5 147.5t-47.5 78t-78 22.5q-45 0 -76.5 -22.5t-48 -78t-16.5 -147.5z" />
<glyph unicode="&#xf5;" horiz-adv-x="1224" d="M55 512q0 170 71 289t196.5 181t289.5 62q168 0 293 -62t194.5 -181t69.5 -289q0 -168 -69.5 -288t-194.5 -182t-293 -62q-164 0 -289.5 62t-196.5 182t-71 288zM192 1130q6 174 85 259.5t196 85.5q55 0 94 -16.5t66.5 -38t53 -38t54.5 -16.5q33 0 48.5 25.5t21.5 81.5 h219q-2 -117 -39 -194t-95.5 -115t-125.5 -38q-57 0 -99.5 17.5t-74 39t-58 38t-55.5 16.5q-31 0 -47.5 -25.5t-22.5 -81.5h-221zM471 512q0 -92 16.5 -146.5t48 -78t76.5 -23.5q47 0 78 23.5t47.5 78t16.5 146.5t-16.5 147.5t-47.5 78t-78 22.5q-45 0 -76.5 -22.5t-48 -78 t-16.5 -147.5z" />
<glyph unicode="&#xf6;" horiz-adv-x="1224" d="M55 512q0 170 71 289t196.5 181t289.5 62q168 0 293 -62t194.5 -181t69.5 -289q0 -168 -69.5 -288t-194.5 -182t-293 -62q-164 0 -289.5 62t-196.5 182t-71 288zM184 1292q0 84 50 129t140 45q94 0 145.5 -45t51.5 -129q0 -82 -51 -128t-146 -46q-90 0 -140 46t-50 128z M471 512q0 -92 16.5 -146.5t48 -78t76.5 -23.5q47 0 78 23.5t47.5 78t16.5 146.5t-16.5 147.5t-47.5 78t-78 22.5q-45 0 -76.5 -22.5t-48 -78t-16.5 -147.5zM653 1292q0 84 50 129t140 45q94 0 145.5 -45t51.5 -129q0 -82 -51 -128t-146 -46q-90 0 -140 46t-50 128z" />
<glyph unicode="&#xf7;" horiz-adv-x="1290" d="M123 530v283h1044v-283h-1044zM461 215q0 86 48 133t136 47q86 0 134 -47t48 -133q0 -84 -48 -131t-134 -47q-88 0 -136 47t-48 131zM461 1124q0 84 48 132.5t136 48.5q86 0 134 -48.5t48 -132.5t-48 -131t-134 -47q-88 0 -136 47t-48 131z" />
<glyph unicode="&#xf8;" horiz-adv-x="1224" d="M55 512q0 170 71 289t196.5 181t289.5 62q168 0 293 -62t194.5 -181t69.5 -289q0 -168 -69.5 -288t-194.5 -182t-293 -62q-164 0 -289.5 62t-196.5 182t-71 288zM84 -47l920 1116h137l-920 -1116h-137zM471 512q0 -92 16.5 -146.5t48 -78t76.5 -23.5q47 0 78 23.5 t47.5 78t16.5 146.5t-16.5 147.5t-47.5 78t-78 22.5q-45 0 -76.5 -22.5t-48 -78t-16.5 -147.5z" />
<glyph unicode="&#xf9;" horiz-adv-x="1267" d="M96 336v688h414v-592q0 -78 28.5 -110.5t84.5 -32.5q29 0 53 11t41.5 33.5t27 59.5t9.5 86v545h413v-1024h-370l-11 205q-47 -113 -135 -169t-213 -56q-104 0 -181 35.5t-119 114.5t-42 206zM273 1499h375l129 -358h-295z" />
<glyph unicode="&#xfa;" horiz-adv-x="1267" d="M96 336v688h414v-592q0 -78 28.5 -110.5t84.5 -32.5q29 0 53 11t41.5 33.5t27 59.5t9.5 86v545h413v-1024h-370l-11 205q-47 -113 -135 -169t-213 -56q-104 0 -181 35.5t-119 114.5t-42 206zM447 1141l129 358h375l-211 -358h-293z" />
<glyph unicode="&#xfb;" horiz-adv-x="1267" d="M96 336v688h414v-592q0 -78 28.5 -110.5t84.5 -32.5q29 0 53 11t41.5 33.5t27 59.5t9.5 86v545h413v-1024h-370l-11 205q-47 -113 -135 -169t-213 -56q-104 0 -181 35.5t-119 114.5t-42 206zM207 1126l221 361h390l221 -361h-289l-127 164l-127 -164h-289z" />
<glyph unicode="&#xfc;" horiz-adv-x="1267" d="M96 336v688h414v-592q0 -78 28.5 -110.5t84.5 -32.5q29 0 53 11t41.5 33.5t27 59.5t9.5 86v545h413v-1024h-370l-11 205q-47 -113 -135 -169t-213 -56q-104 0 -181 35.5t-119 114.5t-42 206zM195 1288q0 84 50 129t140 45q94 0 145.5 -45t51.5 -129q0 -82 -51 -128 t-146 -46q-90 0 -140 46t-50 128zM664 1288q0 84 50 129t140 45q94 0 145.5 -45t51.5 -129q0 -82 -51 -128t-146 -46q-90 0 -140 46t-50 128z" />
<glyph unicode="&#xfd;" horiz-adv-x="1185" d="M-8 -373l78 269q35 -20 74.5 -30.5t107.5 -10.5q63 0 98 16t51 59l15 39l-123 291l-299 764h452l123 -555l43 -227l52 233l127 549h407l-334 -963q-61 -184 -138 -293.5t-181.5 -158.5t-253.5 -49q-92 0 -168 18.5t-131 48.5zM461 1141l129 358h375l-211 -358h-293z" />
<glyph unicode="&#xfe;" horiz-adv-x="1284" d="M100 -430v1876h414v-719l-37 -2q25 137 110 228t242 91q117 0 205 -63t136.5 -183t48.5 -290q0 -166 -49.5 -285t-140.5 -181t-216 -62q-145 0 -228 91t-108 228l37 55v-784h-414zM514 512q0 -76 15.5 -129t48 -80t77.5 -27q70 0 109 52.5t39 183.5t-39 184.5t-107 53.5 q-43 0 -75.5 -27t-50 -79t-17.5 -132z" />
<glyph unicode="&#xff;" horiz-adv-x="1185" d="M-8 -373l78 269q35 -20 74.5 -30.5t107.5 -10.5q63 0 98 16t51 59l15 39l-123 291l-299 764h452l123 -555l43 -227l52 233l127 549h407l-334 -963q-61 -184 -138 -293.5t-181.5 -158.5t-253.5 -49q-92 0 -168 18.5t-131 48.5zM209 1288q0 84 50 129t140 45 q94 0 145.5 -45t51.5 -129q0 -82 -51 -128t-146 -46q-90 0 -140 46t-50 128zM678 1288q0 84 50 129t140 45q94 0 145.5 -45t51.5 -129q0 -82 -51 -128t-146 -46q-90 0 -140 46t-50 128z" />
<glyph unicode="&#x152;" horiz-adv-x="2123" d="M74 676q0 219 78.5 374.5t222 238.5t338.5 83q135 0 237.5 -45t175.5 -123v148h926v-314h-659v-219h524v-291h-524v-215h684v-313h-951v147q-74 -78 -177 -122.5t-236 -44.5q-195 0 -338.5 82.5t-222 238.5t-78.5 375zM494 676q0 -127 26.5 -210t80.5 -125t134 -42 t134.5 42t81 125t26.5 210q0 129 -26.5 211t-81 124t-134.5 42t-134 -42t-80.5 -124t-26.5 -211z" />
<glyph unicode="&#x153;" horiz-adv-x="1902" d="M55 512q0 170 72 289t193.5 181t269.5 62q160 0 272.5 -65.5t169.5 -192.5l-125 -2q55 127 165 193.5t269 66.5q156 0 270.5 -62t177 -174t62.5 -257q0 -33 -3 -66.5t-7 -54.5h-803v168h424q-6 82 -38.5 124t-98.5 42q-53 0 -89 -24.5t-54.5 -82t-18.5 -151.5 t21.5 -148.5t61.5 -75t100 -20.5q63 0 101 26.5t54 73.5l332 -98q-27 -94 -99.5 -157.5t-174 -95t-213.5 -31.5q-160 0 -271.5 65.5t-165.5 187.5l123 -2q-55 -123 -168.5 -187t-273.5 -64q-147 0 -269 62t-194 182t-72 288zM471 512q0 -92 16.5 -146.5t48 -78t76.5 -23.5 q47 0 78 23.5t47.5 78t16.5 146.5t-16.5 147.5t-47.5 78t-78 22.5q-45 0 -76.5 -22.5t-48 -78t-16.5 -147.5z" />
<glyph unicode="&#x178;" horiz-adv-x="1406" d="M18 1352h424l164 -338l101 -236l98 236l166 338h415l-473 -873v-479h-419v479zM274 1611q0 84 50 129t140 45q94 0 145.5 -45t51.5 -129q0 -82 -51 -128t-146 -46q-90 0 -140 46t-50 128zM743 1611q0 84 50 129t140 45q94 0 145.5 -45t51.5 -129q0 -82 -51 -128t-146 -46 q-90 0 -140 46t-50 128z" />
<glyph unicode="&#x2c6;" horiz-adv-x="1024" d="M96 1130l221 361h390l221 -361h-289l-127 164l-127 -164h-289z" />
<glyph unicode="&#x2dc;" horiz-adv-x="1024" d="M92 1130q6 174 85 259.5t196 85.5q55 0 94 -16.5t66.5 -38t53 -38t54.5 -16.5q33 0 48.5 25.5t21.5 81.5h219q-2 -117 -39 -194t-95.5 -115t-125.5 -38q-57 0 -99.5 17.5t-74 39t-58 38t-55.5 16.5q-31 0 -47.5 -25.5t-22.5 -81.5h-221z" />
<glyph unicode="&#x2000;" horiz-adv-x="902" />
<glyph unicode="&#x2001;" horiz-adv-x="1804" />
<glyph unicode="&#x2002;" horiz-adv-x="902" />
<glyph unicode="&#x2003;" horiz-adv-x="1804" />
<glyph unicode="&#x2004;" horiz-adv-x="601" />
<glyph unicode="&#x2005;" horiz-adv-x="451" />
<glyph unicode="&#x2006;" horiz-adv-x="300" />
<glyph unicode="&#x2007;" horiz-adv-x="300" />
<glyph unicode="&#x2008;" horiz-adv-x="225" />
<glyph unicode="&#x2009;" horiz-adv-x="360" />
<glyph unicode="&#x200a;" horiz-adv-x="100" />
<glyph unicode="&#x2010;" horiz-adv-x="1093" d="M160 391v324h776v-324h-776z" />
<glyph unicode="&#x2011;" horiz-adv-x="1093" d="M160 391v324h776v-324h-776z" />
<glyph unicode="&#x2012;" horiz-adv-x="1093" d="M160 391v324h776v-324h-776z" />
<glyph unicode="&#x2013;" horiz-adv-x="1435" d="M156 391v322h1124v-322h-1124z" />
<glyph unicode="&#x2014;" horiz-adv-x="2054" d="M156 391v322h1740v-322h-1740z" />
<glyph unicode="&#x2018;" horiz-adv-x="630" d="M76 958q0 102 46 193.5t115.5 159t143.5 100.5l162 -115q-55 -25 -106.5 -59.5t-91.5 -75.5t-60 -84l8 -6q16 8 32.5 12t43.5 4q41 0 83 -19t70.5 -59t28.5 -104q0 -72 -33 -121t-85.5 -72.5t-113.5 -23.5q-82 0 -137 39t-80.5 100.5t-25.5 130.5z" />
<glyph unicode="&#x2019;" horiz-adv-x="630" d="M93 1188q0 76 32.5 123t86 70.5t110.5 23.5q86 0 140.5 -38t80 -99.5t25.5 -130.5q0 -102 -45 -194.5t-116 -160t-146 -98.5l-160 113q55 25 106 59.5t91 75.5t61 84l-10 8q-12 -8 -30 -13t-46 -5q-41 0 -82 20.5t-69.5 60.5t-28.5 101z" />
<glyph unicode="&#x201a;" horiz-adv-x="606" d="M68 172q0 76 32.5 123t86 70.5t110.5 23.5q86 0 140.5 -38t80 -99.5t25.5 -130.5q0 -102 -45 -194.5t-116 -160t-146 -98.5l-160 113q55 25 106 59.5t91 75.5t61 84l-10 8q-12 -8 -30 -13t-46 -5q-41 0 -82 20.5t-69.5 60.5t-28.5 101z" />
<glyph unicode="&#x201c;" horiz-adv-x="1173" d="M76 958q0 102 46 193.5t115.5 159t143.5 100.5l162 -115q-55 -25 -106.5 -59.5t-91.5 -75.5t-60 -84l8 -6q16 8 32.5 12t43.5 4q41 0 83 -19t70.5 -59t28.5 -104q0 -72 -33 -121t-85.5 -72.5t-113.5 -23.5q-82 0 -137 39t-80.5 100.5t-25.5 130.5zM618 958 q0 102 46.5 193.5t116 159t145.5 100.5l159 -115q-55 -25 -106 -59.5t-91 -75.5t-61 -84l11 -6q14 8 30.5 12t44.5 4q41 0 82 -19t70 -59t29 -104q0 -72 -33 -121t-85.5 -72.5t-111.5 -23.5q-84 0 -139 39t-81 100.5t-26 130.5z" />
<glyph unicode="&#x201d;" horiz-adv-x="1173" d="M93 1188q0 76 32.5 123t86 70.5t110.5 23.5q86 0 140.5 -38t80 -99.5t25.5 -130.5q0 -102 -45 -194.5t-116 -160t-146 -98.5l-160 113q55 25 106 59.5t91 75.5t61 84l-10 8q-12 -8 -30 -13t-46 -5q-41 0 -82 20.5t-69.5 60.5t-28.5 101zM635 1188q0 76 32.5 123t86 70.5 t110.5 23.5q86 0 140.5 -38t80 -99.5t25.5 -130.5q0 -102 -45 -194.5t-116 -160t-146 -98.5l-160 113q55 25 106 59.5t91 75.5t61 84l-10 8q-12 -8 -30 -13t-46 -5q-41 0 -82 20.5t-69.5 60.5t-28.5 101z" />
<glyph unicode="&#x201e;" horiz-adv-x="1136" d="M68 172q0 76 32.5 123t86 70.5t110.5 23.5q86 0 140.5 -38t80 -99.5t25.5 -130.5q0 -102 -45 -194.5t-116 -160t-146 -98.5l-160 113q55 25 106 59.5t91 75.5t61 84l-10 8q-12 -8 -30 -13t-46 -5q-41 0 -82 20.5t-69.5 60.5t-28.5 101zM596 172q0 76 32.5 123t86 70.5 t110.5 23.5q86 0 140.5 -38t80 -99.5t25.5 -130.5q0 -102 -45 -194.5t-116 -160t-146 -98.5l-160 113q55 25 106 59.5t91 75.5t61 84l-10 8q-12 -8 -30 -13t-46 -5q-41 0 -82 20.5t-69.5 60.5t-28.5 101z" />
<glyph unicode="&#x2022;" horiz-adv-x="880" d="M104 678q0 154 89.5 240t246.5 86q160 0 248 -86.5t88 -239.5q0 -152 -88 -238t-248 -86q-158 0 -247 86t-89 238z" />
<glyph unicode="&#x2026;" horiz-adv-x="1941" d="M94 186q0 96 61.5 149.5t167.5 53.5q111 0 170.5 -53t59.5 -150q0 -96 -59.5 -149t-170.5 -53q-106 0 -167.5 53t-61.5 149zM742 186q0 96 61.5 149.5t167.5 53.5q111 0 170.5 -53t59.5 -150q0 -96 -59.5 -149t-170.5 -53q-106 0 -167.5 53t-61.5 149zM1389 186 q0 96 61.5 149.5t167.5 53.5q111 0 170.5 -53t59.5 -150q0 -96 -59.5 -149t-170.5 -53q-106 0 -167.5 53t-61.5 149z" />
<glyph unicode="&#x202f;" horiz-adv-x="360" />
<glyph unicode="&#x2039;" horiz-adv-x="722" d="M59 543l256 401h347l-242 -401l242 -402h-347z" />
<glyph unicode="&#x203a;" horiz-adv-x="722" d="M59 141l242 402l-242 401h347l258 -401l-258 -402h-347z" />
<glyph unicode="&#x205f;" horiz-adv-x="451" />
<glyph unicode="&#x20ac;" horiz-adv-x="1437" d="M25 475v135h952l-43 -135h-909zM25 717v133h1034l-45 -133h-989zM180 676q0 219 81 374.5t230.5 238.5t354.5 83q137 0 250.5 -38t192.5 -109.5t108 -173.5l-297 -133q-12 92 -84 132t-160 40q-106 0 -172 -46.5t-96.5 -138.5t-30.5 -229q0 -205 67.5 -309.5 t233.5 -104.5q92 0 152.5 45t79.5 144l311 -91q-29 -129 -106.5 -214t-192.5 -125.5t-256 -40.5q-207 0 -356.5 82.5t-229.5 238.5t-80 375z" />
<glyph unicode="&#x2122;" horiz-adv-x="1677" d="M14 1186v166h648v-166h-648zM225 676v676h228v-676h-228zM735 676v676h332l86 -287l31 -131h6l31 131l88 287h323v-676h-223v246l10 219h-6l-45 -174l-90 -291h-186l-91 293l-47 172h-4l8 -219v-246h-223z" />
<glyph unicode="&#x25fc;" horiz-adv-x="1024" d="M0 0v1024h1024v-1024h-1024z" />
<glyph unicode="&#xfb03;" horiz-adv-x="2310" d="M16 739v285h838v-285h-838zM168 0v1090q0 109 36 183.5t98.5 120.5t140 66.5t159.5 20.5q92 0 163 -19.5t101 -42.5l-32 -245q-20 12 -49 20t-74 8q-68 0 -112 -28.5t-44 -106.5v-127l27 -57v-883h-414zM845 739v285h838v-285h-838zM997 0v1090q0 109 36 183.5 t98.5 120.5t140 66.5t159.5 20.5q92 0 163 -19.5t101 -42.5l-32 -245q-20 12 -49 20t-74 8q-68 0 -112 -28.5t-44 -106.5v-127l27 -57v-883h-414zM1772 1296q0 98 54 141.5t177 43.5t177.5 -43t54.5 -142q0 -96 -54.5 -139t-177.5 -43t-177 43t-54 139zM1796 0v1024h414 v-1024h-414z" />
<glyph unicode="&#xfb04;" horiz-adv-x="2381" d="M16 739v285h838v-285h-838zM168 0v1090q0 109 36 183.5t98.5 120.5t140 66.5t159.5 20.5q92 0 163 -19.5t101 -42.5l-32 -245q-20 12 -49 20t-74 8q-68 0 -112 -28.5t-44 -106.5v-127l27 -57v-883h-414zM845 739v285h838v-285h-838zM997 0v1090q0 109 36 183.5 t98.5 120.5t140 66.5t159.5 20.5q92 0 163 -19.5t101 -42.5l-32 -245q-20 12 -49 20t-74 8q-68 0 -112 -28.5t-44 -106.5v-127l27 -57v-883h-414zM1794 322v1124h414v-1065q0 -66 20.5 -94.5t71.5 -28.5q25 0 44.5 3t41.5 11l-22 -233q-37 -27 -103.5 -43t-132.5 -16 q-178 0 -256 78.5t-78 263.5z" />
</font>
</defs>
</svg>
